<?xml version="1.0" encoding="UTF-8" standalone="no"?>
<svg
   xmlns:dc="http://purl.org/dc/elements/1.1/"
   xmlns:cc="http://creativecommons.org/ns#"
   xmlns:rdf="http://www.w3.org/1999/02/22-rdf-syntax-ns#"
   xmlns:svg="http://www.w3.org/2000/svg"
   xmlns="http://www.w3.org/2000/svg"
   viewBox="0 0 1122.52 793.70135"
   height="793.70135"
   width="1122.52"
   xml:space="preserve"
   id="svg2"
   version="1.1"><metadata
     id="metadata8"><rdf:RDF><cc:Work
         rdf:about=""><dc:format>image/svg+xml</dc:format><dc:type
           rdf:resource="http://purl.org/dc/dcmitype/StillImage" /></cc:Work></rdf:RDF></metadata><defs
     id="defs6"><clipPath
       id="clipPath18"
       clipPathUnits="userSpaceOnUse"><path
         id="path16"
         d="M 0,0 H 841.89 V 595.276 H 0 Z" /></clipPath><clipPath
       id="clipPath166"
       clipPathUnits="userSpaceOnUse"><path
         id="path164"
         d="M 0,0 H 841.89 V 595.276 H 0 Z" /></clipPath></defs><g
     transform="matrix(1.3333333,0,0,-1.3333333,0,793.70133)"
     id="g10"><g
       id="g12"><g
         clip-path="url(#clipPath18)"
         id="g14"><g
           transform="translate(275.9673,112.6997)"
           id="g20"><path
             id="path22"
             style="fill:#ffffff;fill-opacity:1;fill-rule:nonzero;stroke:none"
             d="m 0,0 h 0.001 v 0 m 415.363,149.627 c 0.332,-4.701 2.994,-9.143 5.602,-13.458 2.047,-3.385 4.595,-7.598 4.116,-9.68 -0.494,-2.161 -4.702,-4.99 -8.083,-7.261 -3.936,-2.645 -7.677,-5.576 -10.458,-8.963 -0.829,-1.205 -1.213,-1.435 -1.896,-3.441 -0.655,-1.95 -0.155,-4.05 -0.294,-4.452 0.028,-3.937 1.389,-7.986 2.744,-11.943 1.282,-3.743 2.878,-8.399 1.956,-10.367 -0.935,-1.996 -5.63,-3.916 -9.404,-5.459 -5.576,-2.284 -11.346,-4.644 -14.276,-9.508 -2.938,-4.877 -2.216,-10.911 -1.517,-16.747 0.47,-3.93 1.055,-8.823 -0.268,-10.584 -1.322,-1.762 -6.299,-2.727 -10.298,-3.505 -5.947,-1.155 -12.096,-2.349 -15.978,-6.571 -3.872,-4.214 -4.392,-10.272 -4.895,-16.132 -0.34,-3.953 -0.761,-8.873 -2.424,-10.36 -1.641,-1.47 -6.701,-1.476 -10.767,-1.483 -6.071,-0.008 -12.349,-0.019 -17.008,-3.446 -4.632,-3.41 -6.341,-9.263 -7.993,-14.924 -1.117,-3.825 -2.507,-8.583 -4.438,-9.742 -1.89,-1.137 -6.844,-0.205 -10.825,0.538 -5.966,1.118 -12.135,2.273 -17.386,-0.243 -5.202,-2.493 -8.017,-7.93 -10.739,-13.189 -1.842,-3.558 -4.135,-7.987 -6.266,-8.776 -2.063,-0.764 -6.735,1.047 -10.489,2.506 -5.645,2.191 -11.484,4.458 -17.137,2.933 -5.576,-1.499 -9.38,-6.332 -13.058,-11.004 -2.497,-3.172 -5.604,-7.118 -7.861,-7.51 -2.166,-0.384 -6.386,2.242 -9.782,4.345 -5.137,3.181 -10.45,6.494 -16.309,5.983 -5.75,-0.476 -10.393,-4.549 -14.884,-8.487 -3.056,-2.682 -6.86,-6.018 -9.17,-6.006 -2.311,0.014 -6.035,3.393 -9.027,6.11 -4.396,3.989 -8.943,8.114 -14.68,8.655 -0.418,0.041 -0.832,0.06 -1.244,0.062 -5.373,0.03 -10.364,-2.959 -15.204,-5.858 -3.445,-2.064 -7.739,-4.645 -9.883,-4.233 -2.248,0.417 -5.261,4.399 -7.683,7.598 -3.567,4.713 -7.256,9.587 -12.795,11.151 -5.62,1.59 -11.509,-0.611 -17.206,-2.737 -3.788,-1.416 -8.499,-3.175 -10.547,-2.386 -2.113,0.814 -4.301,5.268 -6.059,8.848 -2.597,5.288 -5.282,10.756 -10.425,13.309 -5.191,2.575 -11.387,1.492 -17.377,0.442 -3.997,-0.7 -8.971,-1.571 -10.837,-0.415 -1.666,1.033 -2.852,4.819 -3.81,8.32 -0.098,0.098 -0.885,3.341 -1.529,5.513 -1.303,4.288 -3.038,8.331 -6.508,10.971 -4.577,3.48 -10.853,3.562 -16.922,3.64 -4.065,0.052 -9.124,0.118 -10.731,1.607 -1.627,1.505 -1.933,6.43 -2.179,10.385 -0.364,5.865 -0.74,11.929 -4.512,16.184 -3.781,4.268 -9.901,5.534 -15.821,6.755 -3.98,0.823 -8.933,1.845 -10.212,3.621 -1.281,1.778 -0.58,6.661 -0.016,10.585 0.836,5.828 1.531,11.763 -1.121,16.764 -1.678,3.162 -23.472,10.547 -24.627,19.135 -1.155,8.588 5.651,17.199 4.201,25.785 -1.449,8.588 -19.411,16.27 -19.99,19.992 -0.578,3.721 8.596,16.06 9.211,24.94 0.615,8.879 -15.572,18.402 -15.554,24.585 0.948,0.843 1.939,1.676 2.868,2.452 4.581,3.819 9.324,9.866 10.579,15.335 1.267,5.52 -1.317,11.047 -3.817,16.391 -1.678,3.59 -3.767,8.057 -3.061,10.104 0.716,2.081 5.182,4.466 8.771,6.382 5.304,2.837 11.6,7.345 13.183,10.899 0,0 0.42,0.819 1.154,2.44 1.854,5.364 -0.12,11.126 -2.03,16.699 -1.281,3.742 -2.877,8.4 -1.955,10.365 0.935,1.998 5.631,3.918 9.404,5.461 5.578,2.283 11.345,4.642 14.276,9.506 1.553,2.579 2.07,5.485 2.122,8.509 -0.207,1.74 -0.085,3.115 -0.153,4.048 -0.119,1.396 -0.284,2.798 -0.451,4.189 -0.471,3.931 -1.056,8.823 0.268,10.586 1.321,1.761 6.297,2.727 10.296,3.504 5.948,1.154 12.098,2.35 15.978,6.571 3.874,4.215 4.393,10.274 4.896,16.133 0.34,3.952 0.762,8.872 2.425,10.361 1.641,1.468 6.701,1.476 10.767,1.483 6.07,0.009 12.347,0.019 17.006,3.446 4.632,3.408 6.342,9.262 7.994,14.922 1.117,3.825 2.507,8.583 4.44,9.742 1.889,1.133 6.843,0.207 10.823,-0.539 5.963,-1.115 12.131,-2.273 17.386,0.246 5.202,2.493 8.016,7.93 10.738,13.187 1.843,3.559 4.136,7.989 6.267,8.778 2.062,0.76 6.733,-1.05 10.487,-2.506 5.645,-2.193 11.482,-4.46 17.139,-2.935 5.576,1.501 9.38,6.332 13.058,11.005 2.497,3.171 5.604,7.117 7.861,7.509 2.165,0.379 6.386,-2.242 9.783,-4.344 5.136,-3.18 10.445,-6.499 16.308,-5.982 5.75,0.476 10.393,4.548 14.883,8.487 3.057,2.682 6.861,6.019 9.171,6.005 2.31,-0.013 6.034,-3.392 9.027,-6.109 4.397,-3.989 8.943,-8.114 14.681,-8.655 5.843,-0.569 11.236,2.675 16.447,5.796 3.447,2.065 7.738,4.632 9.882,4.234 2.248,-0.42 5.263,-4.401 7.684,-7.6 3.568,-4.714 7.256,-9.588 12.796,-11.153 3.758,-1.062 7.641,-0.415 11.507,0.758 1.506,0.553 3.926,1.362 5.61,1.949 0.03,0.011 0.06,0.022 0.09,0.033 3.787,1.413 8.504,3.172 10.545,2.386 2.112,-0.814 4.3,-5.268 6.059,-8.848 2.596,-5.289 5.282,-10.756 10.425,-13.31 1.326,-0.657 2.719,-1.071 4.156,-1.314 2.417,-0.169 3.302,-0.225 4.185,-0.266 2.962,0.077 6.025,0.61 9.036,1.139 3.997,0.699 8.972,1.57 10.836,0.415 1.905,-1.181 3.182,-5.956 4.207,-9.792 1.52,-5.68 3.091,-11.553 7.641,-15.013 4.577,-3.481 10.854,-3.562 16.925,-3.641 4.064,-0.05 9.122,-0.118 10.729,-1.605 1.626,-1.506 1.931,-6.43 2.177,-10.385 0.364,-5.864 0.74,-11.93 4.513,-16.186 3.781,-4.267 9.901,-5.531 15.82,-6.753 3.98,-0.823 8.933,-1.845 10.213,-3.622 1.281,-1.777 0.58,-6.662 0.017,-10.586 -0.837,-5.828 -1.702,-11.852 1.12,-16.762 2.815,-4.895 8.526,-7.32 14.048,-9.666 3.736,-1.588 8.385,-3.563 9.274,-5.57 0.876,-1.976 -0.831,-6.612 -2.2,-10.338 -2.042,-5.553 -4.152,-11.292 -2.426,-16.676 1.71,-5.334 6.76,-8.842 11.645,-12.235 3.325,-2.308 7.466,-5.184 7.909,-7.35 0.355,-1.726 -12.776,-20.248 -13.992,-33.425 2.263,0.901 13.864,-13.707 13.85,-18.862 -0.015,-5.155 -10.728,-21.819 -10.728,-21.819" /></g><g
           transform="translate(235.3964,270.769)"
           id="g24" /><g
           transform="translate(648.2238,288.1265)"
           id="g26"><path
             id="path28"
             style="fill:#4f4c4d;fill-opacity:1;fill-rule:nonzero;stroke:none"
             d="M 0,0 -0.002,0.002 C -0.093,0.158 -0.201,0.263 -0.298,0.4" /></g><g
           transform="translate(270.5382,176.3496)"
           id="g30"><path
             id="path32"
             style="fill:#4f4c4d;fill-opacity:1;fill-rule:nonzero;stroke:none"
             d="M 0,0 C 0.28,0.234 0.561,0.469 0.841,0.703 0.536,0.499 0.26,0.26 -0.014,0.02 -0.009,0.013 -0.005,0.007 0,0" /></g><g
           transform="translate(205.6254,346.8164)"
           id="g34"><path
             id="path36"
             style="fill:#322f30;fill-opacity:1;fill-rule:nonzero;stroke:none"
             d="m 0,0 c 4.764,3.289 9.69,6.688 11.441,11.943 1.767,5.306 -0.147,11.015 -1.998,16.536 -1.242,3.708 -2.789,8.323 -1.908,10.265 0.894,1.975 5.403,3.862 9.027,5.379 5.357,2.246 10.896,4.565 13.7,9.37 1.487,2.549 1.976,5.424 2.017,8.418 -0.204,1.722 -0.09,3.082 -0.158,4.006 -0.119,1.382 -0.281,2.771 -0.445,4.148 -0.463,3.893 -1.04,8.737 0.228,10.478 1.266,1.738 6.048,2.682 9.891,3.439 5.716,1.127 11.626,2.293 15.345,6.461 3.713,4.161 4.196,10.158 4.663,15.955 0.316,3.912 0.708,8.78 2.303,10.249 1.575,1.45 6.44,1.443 10.349,1.439 5.837,-0.008 11.872,-0.016 16.342,3.365 4.445,3.36 6.073,9.149 7.646,14.747 1.063,3.783 2.386,8.489 4.242,9.632 1.813,1.116 6.579,0.185 10.408,-0.563 5.737,-1.122 11.67,-2.284 16.717,0.194 4.994,2.454 7.685,7.827 10.288,13.024 1.762,3.518 3.955,7.895 6.002,8.671 1.98,0.747 6.477,-1.057 10.091,-2.509 5.433,-2.186 11.052,-4.447 16.487,-2.952 5.357,1.471 9.001,6.242 12.525,10.857 2.392,3.132 5.369,7.03 7.538,7.411 2.08,0.369 6.146,-2.237 9.419,-4.327 4.946,-3.162 10.061,-6.461 15.696,-5.966 5.528,0.455 9.981,4.474 14.287,8.359 2.933,2.647 6.581,5.939 8.803,5.92 2.221,-0.02 5.811,-3.374 8.696,-6.072 4.239,-3.961 8.621,-8.056 14.14,-8.607 5.62,-0.58 10.797,2.617 15.798,5.692 3.309,2.034 7.427,4.562 9.49,4.163 2.163,-0.422 5.073,-4.371 7.41,-7.544 3.443,-4.676 7.003,-9.51 12.334,-11.074 3.616,-1.061 7.348,-0.432 11.063,0.718 1.446,0.544 3.77,1.337 5.388,1.913 0.029,0.011 0.057,0.022 0.086,0.033 3.638,1.388 8.169,3.116 10.133,2.333 2.033,-0.812 4.149,-5.226 5.85,-8.775 2.511,-5.242 5.109,-10.661 10.061,-13.203 1.277,-0.654 2.617,-1.068 3.999,-1.312 2.325,-0.174 3.176,-0.232 4.025,-0.275 2.848,0.067 5.791,0.587 8.686,1.102 3.841,0.682 8.622,1.53 10.417,0.381 1.835,-1.174 3.076,-5.904 4.073,-9.703 1.476,-5.627 3.003,-11.444 7.387,-14.881 4.412,-3.459 10.448,-3.556 16.285,-3.651 3.907,-0.062 8.772,-0.143 10.32,-1.619 1.568,-1.495 1.875,-6.37 2.123,-10.286 0.365,-5.805 0.744,-11.809 4.383,-16.033 3.648,-4.233 9.535,-5.502 15.23,-6.728 3.829,-0.826 8.594,-1.851 9.83,-3.613 1.237,-1.762 0.576,-6.596 0.045,-10.479 -0.788,-5.766 -1.603,-11.726 1.124,-16.594 2.72,-4.853 8.218,-7.27 13.533,-9.606 3.597,-1.583 8.073,-3.55 8.933,-5.54 0.848,-1.957 -0.78,-6.543 -2.087,-10.227 -1.948,-5.49 -3.961,-11.165 -2.286,-16.499 1.658,-5.285 6.524,-8.771 11.231,-12.142 3.203,-2.295 7.192,-5.153 7.624,-7.297 0.346,-1.71 -1.329,-4.831 -3.07,-7.739 2.174,0.886 4.457,1.381 6.821,1.36 1.662,-0.015 3.282,-0.278 4.849,-0.748 1.228,2.942 1.91,6.004 1.28,9.124 -1.219,6.031 -6.753,9.995 -11.636,13.494 -3.203,2.293 -6.834,4.894 -7.483,6.966 -0.666,2.121 0.839,6.366 2.168,10.111 1.996,5.627 4.258,12.003 1.84,17.598 -2.431,5.623 -8.646,8.354 -14.129,10.765 -3.621,1.591 -7.726,3.396 -8.796,5.307 -1.076,1.922 -0.468,6.373 0.07,10.3 0.809,5.922 1.727,12.634 -1.78,17.634 -3.504,4.994 -10.122,6.418 -15.959,7.677 -3.88,0.836 -8.277,1.782 -9.716,3.452 -1.43,1.66 -1.712,6.139 -1.962,10.092 -0.376,5.966 -0.802,12.727 -5.225,16.946 -4.4,4.195 -11.154,4.304 -17.113,4.401 -3.976,0.064 -8.483,0.136 -10.228,1.505 -1.716,1.345 -2.854,5.681 -3.858,9.507 -1.516,5.785 -3.237,12.34 -8.39,15.636 -5.109,3.268 -11.75,2.092 -17.609,1.052 -3.923,-0.697 -8.369,-1.487 -10.35,-0.47 -1.93,0.991 -3.865,5.028 -5.572,8.59 -2.586,5.396 -5.516,11.512 -11.206,13.78 -5.623,2.247 -11.911,-0.16 -17.46,-2.279 -3.73,-1.422 -7.958,-3.028 -10.105,-2.408 -2.069,0.607 -4.718,4.206 -7.057,7.379 -3.551,4.823 -7.576,10.289 -13.6,11.463 -5.92,1.145 -11.397,-2.217 -16.693,-5.473 -3.41,-2.097 -7.255,-4.484 -9.516,-4.25 -2.129,0.214 -5.387,3.259 -8.261,5.945 -4.38,4.092 -9.344,8.732 -15.49,8.785 -6.147,0.054 -11.192,-4.499 -15.642,-8.513 -2.921,-2.637 -6.232,-5.623 -8.363,-5.8 -2.248,-0.191 -6.07,2.262 -9.442,4.415 -5.238,3.348 -10.653,6.804 -16.596,5.761 -6.042,-1.066 -10.162,-6.461 -13.797,-11.222 -2.393,-3.132 -5.105,-6.683 -7.184,-7.253 -2.154,-0.58 -6.356,1.096 -10.061,2.584 -5.51,2.214 -11.755,4.73 -17.418,2.583 -5.727,-2.168 -8.764,-8.232 -11.444,-13.582 -1.769,-3.532 -3.774,-7.536 -5.72,-8.491 -1.998,-0.982 -6.429,-0.116 -10.34,0.649 -5.839,1.14 -12.457,2.434 -17.624,-0.744 -5.21,-3.205 -7.044,-9.73 -8.662,-15.485 -1.071,-3.808 -2.283,-8.123 -4.022,-9.439 -1.767,-1.336 -6.274,-1.33 -10.251,-1.325 -5.96,0.008 -12.716,0.016 -17.189,-4.103 C 52.783,119.92 52.238,113.167 51.757,107.208 51.44,103.262 51.079,98.789 49.62,97.155 48.152,95.509 43.739,94.639 39.845,93.871 33.986,92.714 27.345,91.406 23.756,86.473 20.162,81.536 20.962,74.81 21.668,68.875 c 0.468,-3.936 1,-8.399 -0.111,-10.303 C 20.453,56.68 16.317,54.948 12.668,53.418 7.145,51.106 0.883,48.484 -1.645,42.905 -4.161,37.354 -2.01,30.937 -0.112,25.276 1.151,21.509 2.583,17.238 1.879,15.129 1.193,13.068 -2.483,10.532 -5.725,8.293 M 77.05,-231.763 h 0.001 v 0 m -0.646,-8.594 c 2.178,-0.176 4.079,-0.528 5.072,-1.307 1.716,-1.345 2.854,-5.68 3.857,-9.508 1.518,-5.783 3.238,-12.338 8.391,-15.634 5.111,-3.27 11.749,-2.091 17.609,-1.053 3.924,0.696 8.372,1.484 10.349,0.471 1.931,-0.991 3.866,-5.029 5.572,-8.59 1.533,-3.199 3.203,-6.634 5.48,-9.386 0.707,-0.911 0.877,-1.422 2.862,-3.349 1.814,-1.361 3.061,-1.305 4.422,-1.536 5.272,-0.563 10.861,0.841 15.904,2.768 3.729,1.423 7.956,3.031 10.105,2.408 1.844,-0.541 6.136,-6.192 7.269,-7.482 0.511,-0.808 1.588,-2.112 1.876,-2.685 3.066,-3.959 6.634,-7.724 11.51,-8.671 5.918,-1.156 11.399,2.215 16.694,5.471 3.412,2.095 7.283,4.451 9.517,4.249 2.128,-0.214 5.386,-3.258 8.26,-5.945 4.38,-4.092 9.344,-8.732 15.491,-8.785 6.146,-0.054 11.191,4.499 15.641,8.514 2.92,2.635 6.231,5.622 8.363,5.799 2.247,0.192 6.071,-2.261 9.443,-4.414 5.238,-3.35 10.651,-6.814 16.595,-5.764 6.042,1.066 10.162,6.462 13.797,11.222 2.393,3.133 5.105,6.684 7.183,7.254 2.154,0.591 6.356,-1.093 10.061,-2.584 5.512,-2.215 11.759,-4.724 17.418,-2.583 5.728,2.168 8.765,8.232 11.444,13.583 1.769,3.533 3.774,7.534 5.722,8.492 1.999,0.978 6.431,0.112 10.34,-0.65 5.84,-1.145 12.457,-2.437 17.624,0.743 5.209,3.206 7.043,9.73 8.661,15.488 1.07,3.807 2.283,8.122 4.021,9.437 1.768,1.337 6.276,1.33 10.253,1.325 5.96,-0.007 12.716,-0.017 17.189,4.102 4.495,4.141 5.04,10.894 5.521,16.853 0.318,3.947 0.679,8.421 2.136,10.055 1.469,1.646 5.881,2.514 9.775,3.282 5.859,1.157 12.501,2.465 16.091,7.398 3.593,4.937 2.794,11.664 2.087,17.598 -0.469,3.938 -0.999,8.399 0.112,10.304 1.104,1.891 5.24,3.623 8.89,5.154 5.522,2.313 11.783,4.935 14.311,10.515 2.515,5.55 0.365,11.968 -1.533,17.629 -1.263,3.768 -2.694,8.036 -1.991,10.146 0.685,2.058 4.36,4.595 7.603,6.834 4.945,3.412 10.548,7.28 11.872,13.291 1.306,5.929 -2.121,11.745 -5.145,16.878 -0.454,0.772 -0.913,1.564 -1.36,2.356 -4.708,0.211 -9.069,2.332 -12.747,5.865 0.332,-4.655 2.904,-9.058 5.424,-13.337 1.977,-3.357 4.439,-7.534 3.984,-9.593 -0.469,-2.139 -4.508,-4.926 -7.752,-7.165 -3.778,-2.607 -7.366,-5.499 -10.031,-8.843 -0.794,-1.19 -1.162,-1.417 -1.814,-3.402 -0.624,-1.927 -0.137,-4.007 -0.27,-4.405 0.038,-3.897 1.358,-7.909 2.672,-11.83 1.242,-3.708 2.79,-8.32 1.908,-10.267 -0.893,-1.972 -5.403,-3.86 -9.027,-5.377 -5.355,-2.245 -10.896,-4.565 -13.7,-9.372 -2.812,-4.819 -2.101,-10.793 -1.413,-16.572 0.463,-3.892 1.039,-8.736 -0.229,-10.477 -1.266,-1.739 -6.048,-2.681 -9.892,-3.44 -5.715,-1.126 -11.624,-2.292 -15.345,-6.46 -3.711,-4.161 -4.195,-10.156 -4.662,-15.955 -0.316,-3.912 -0.708,-8.781 -2.302,-10.248 -1.574,-1.451 -6.439,-1.443 -10.349,-1.438 -5.837,0.008 -11.874,0.015 -16.345,-3.365 -4.443,-3.362 -6.07,-9.152 -7.644,-14.749 -1.063,-3.784 -2.387,-8.489 -4.24,-9.632 -1.814,-1.119 -6.58,-0.183 -10.41,0.563 -5.739,1.123 -11.674,2.283 -16.716,-0.193 -4.995,-2.453 -7.687,-7.827 -10.29,-13.025 -1.762,-3.517 -3.954,-7.894 -6.001,-8.67 -1.982,-0.751 -6.479,1.056 -10.092,2.509 -5.434,2.185 -11.054,4.446 -16.486,2.951 -5.357,-1.469 -9.002,-6.242 -12.526,-10.856 -2.392,-3.133 -5.368,-7.031 -7.537,-7.412 -2.082,-0.374 -6.146,2.237 -9.417,4.328 -4.949,3.163 -10.066,6.457 -15.699,5.967 -5.527,-0.456 -9.98,-4.474 -14.288,-8.36 -2.931,-2.646 -6.58,-5.938 -8.8,-5.919 -2.222,0.02 -5.813,3.374 -8.697,6.072 -4.238,3.96 -8.621,8.056 -14.139,8.607 -0.402,0.041 -0.8,0.061 -1.196,0.065 -5.166,0.045 -9.957,-2.901 -14.603,-5.756 -3.307,-2.034 -7.429,-4.577 -9.491,-4.164 -2.163,0.419 -5.071,4.369 -7.408,7.542 -3.444,4.676 -7.004,9.51 -12.334,11.074 -5.408,1.589 -11.065,-0.573 -16.537,-2.662 -3.638,-1.391 -8.163,-3.121 -10.134,-2.333 -2.034,0.811 -4.15,5.226 -5.85,8.775 -2.512,5.241 -5.109,10.661 -10.06,13.202 -4.999,2.563 -10.954,1.508 -16.71,0.485 -3.841,-0.681 -8.622,-1.53 -10.42,-0.381 -1.604,1.027 -2.755,4.777 -3.686,8.246 -0.094,0.098 -0.86,3.31 -1.485,5.462 -1.265,4.248 -2.944,8.254 -6.288,10.877 -4.41,3.457 -10.445,3.555 -16.281,3.649 -3.909,0.063 -8.773,0.142 -10.323,1.621 -1.568,1.494 -1.876,6.369 -2.123,10.285 -0.366,5.806 -0.744,11.809 -4.383,16.032 -3.647,4.235 -9.536,5.504 -15.231,6.729 -3.829,0.827 -8.594,1.852 -9.829,3.613 -1.236,1.763 -0.576,6.595 -0.045,10.478 0.789,5.765 1.604,11.726 -1.124,16.596 l -8.793,-4.927 c 1.078,-1.922 0.468,-6.375 -0.068,-10.304 -0.81,-5.92 -1.727,-12.631 1.779,-17.63 3.503,-4.995 10.12,-6.419 15.959,-7.677 3.879,-0.837 8.276,-1.783 9.716,-3.456 1.43,-1.658 1.712,-6.137 1.961,-10.088 0.376,-5.965 0.803,-12.728 5.225,-16.944 4.402,-4.199 11.157,-4.309 17.116,-4.406 1.333,-0.021 2.72,-0.047 4.048,-0.119" /></g><g
           transform="translate(648.2222,288.1274)"
           id="g38" /><g
           transform="translate(377.8534,176.2417)"
           id="g40"><path
             id="path42"
             style="fill:#322f30;fill-opacity:1;fill-rule:nonzero;stroke:none"
             d="M 0,0 C -0.636,0.494 -1.341,0.69 -2.116,0.588 -2.944,0.479 -3.602,0.11 -4.09,-0.518 c -0.488,-0.628 -0.679,-1.35 -0.571,-2.165 0.105,-0.801 0.475,-1.445 1.11,-1.933 0.635,-0.487 1.353,-0.678 2.155,-0.572 0.801,0.105 1.446,0.476 1.933,1.11 0.487,0.635 0.678,1.354 0.572,2.155 C 1.006,-1.135 0.636,-0.494 0,0 m 22.594,3.4 c -1.07,0.49 -2.495,0.677 -4.273,0.562 l -0.023,0.174 c 1.754,0.448 3.071,1.158 3.948,2.131 0.877,0.973 1.229,2.119 1.056,3.437 -0.199,1.511 -0.952,2.585 -2.258,3.222 -1.116,0.542 -2.722,0.686 -4.818,0.43 L 10.558,12.61 C 10.384,12.587 10.186,12.59 9.965,12.62 9.752,12.592 9.635,12.577 9.616,12.574 9.132,12.511 8.902,12.387 8.926,12.203 c 0.027,-0.204 0.302,-0.271 0.825,-0.202 0.855,0.092 1.366,0.032 1.532,-0.183 0.095,-0.126 0.2,-0.615 0.312,-1.467 l 2.07,-15.726 c 0.097,-0.737 0.092,-1.186 -0.015,-1.348 -0.107,-0.162 -0.509,-0.288 -1.206,-0.38 -0.601,-0.079 -0.891,-0.202 -0.869,-0.366 0.022,-0.165 0.197,-0.225 0.527,-0.182 l 3.546,0.467 c 2.19,0.288 3.506,0.471 3.95,0.549 1.612,0.331 2.824,0.786 3.635,1.366 1.677,1.187 2.385,2.769 2.125,4.745 -0.247,1.88 -1.169,3.188 -2.764,3.924 M 19.631,5.805 C 19.118,4.978 18.313,4.473 17.213,4.289 L 15.622,4.02 15.36,3.986 l -1.109,8.43 c 0.69,0.15 1.199,0.246 1.529,0.29 1.24,0.163 2.104,0.109 2.594,-0.162 0.934,-0.508 1.524,-1.692 1.769,-3.552 0.171,-1.299 0,-2.361 -0.512,-3.187 m 1.935,-10.318 c -0.683,-0.957 -1.692,-1.523 -3.03,-1.699 -0.891,-0.118 -1.443,-0.122 -1.654,-0.011 -0.127,0.062 -0.227,0.374 -0.301,0.936 l -1.14,8.662 c 1.569,0.207 2.656,0.261 3.261,0.164 2.053,-0.322 3.24,-1.703 3.562,-4.145 0.217,-1.647 -0.016,-2.949 -0.698,-3.907 M 38.538,8.752 C 38.383,8.732 38.255,8.695 38.154,8.643 38.052,8.589 37.827,8.54 37.478,8.495 L 36.664,8.387 C 36.238,8.331 35.692,8.286 35.026,8.251 34.965,8.269 34.885,8.271 34.789,8.259 34.556,8.228 34.449,8.145 34.467,8.008 c 0.02,-0.156 0.128,-0.221 0.323,-0.195 0.683,0.09 1.1,0.125 1.252,0.105 0.151,-0.02 0.238,-0.117 0.261,-0.292 0.039,-0.291 -0.487,-3.476 -1.578,-9.554 -0.327,0.629 -0.62,1.163 -0.881,1.603 -0.769,1.441 -1.248,2.366 -1.437,2.777 l -0.698,1.381 c -0.237,0.463 -0.461,0.907 -0.673,1.333 -0.53,0.978 -0.805,1.544 -0.825,1.696 -0.022,0.172 0.265,0.307 0.864,0.405 0.714,0.115 1.062,0.244 1.043,0.389 -0.022,0.164 -0.14,0.233 -0.353,0.205 L 30.288,7.627 C 29.574,7.506 29.016,7.406 28.612,7.327 28.341,7.292 28.166,7.269 28.089,7.258 27.857,7.228 27.515,7.202 27.064,7.183 26.613,7.163 26.282,7.139 26.068,7.111 25.816,7.078 25.7,6.983 25.721,6.828 c 0.025,-0.194 0.295,-0.256 0.808,-0.189 0.514,0.068 0.835,0.061 0.964,-0.021 0.08,-0.009 0.595,-0.927 1.546,-2.754 1.377,-2.677 3.03,-5.801 4.96,-9.372 -0.163,-1.164 -0.422,-2.49 -0.778,-3.976 -0.243,-0.998 -0.452,-1.508 -0.626,-1.531 -0.117,-0.016 -0.284,0.13 -0.502,0.436 -0.288,0.396 -0.694,0.559 -1.217,0.491 -0.388,-0.051 -0.688,-0.209 -0.899,-0.474 -0.212,-0.264 -0.293,-0.58 -0.245,-0.949 0.056,-0.426 0.252,-0.755 0.588,-0.987 0.336,-0.231 0.737,-0.317 1.202,-0.255 1.085,0.142 1.829,1.079 2.233,2.807 0.65,2.846 1.417,6.83 2.3,11.954 0.31,1.835 0.542,3.216 0.697,4.143 l 0.136,0.758 0.134,0.559 c 0.06,0.289 0.149,0.472 0.268,0.548 0.118,0.075 0.408,0.154 0.871,0.235 0.462,0.081 0.684,0.19 0.666,0.329 -0.018,0.138 -0.114,0.195 -0.289,0.172 m 27.425,-8.809 c -0.918,-0.121 -1.487,-0.088 -1.706,0.1 -0.116,0.143 -0.236,0.679 -0.358,1.609 l -2.036,15.465 c -0.099,0.755 -0.135,1.214 -0.107,1.375 0.028,0.162 0.135,0.284 0.321,0.368 0.111,0.054 0.293,0.098 0.545,0.131 0.85,0.131 1.263,0.284 1.24,0.459 -0.023,0.174 -0.237,0.235 -0.644,0.181 -0.117,-0.015 -0.383,-0.05 -0.8,-0.105 -0.417,-0.055 -1.216,-0.16 -2.398,-0.316 -0.349,-0.046 -0.872,-0.115 -1.57,-0.207 -0.678,-0.089 -1.153,-0.151 -1.424,-0.187 l -0.145,-0.019 c -0.33,-0.044 -0.483,-0.153 -0.46,-0.328 0.023,-0.175 0.18,-0.243 0.471,-0.205 0.927,0.142 1.481,0.13 1.66,-0.034 0.179,-0.164 0.337,-0.762 0.473,-1.792 l 0.825,-6.27 -8.749,-1.152 -0.884,6.708 c -0.102,0.777 -0.1,1.248 0.007,1.41 0.107,0.162 0.475,0.285 1.105,0.368 0.629,0.083 0.933,0.212 0.91,0.387 -0.026,0.194 -0.213,0.269 -0.562,0.223 -0.213,-0.028 -0.385,-0.066 -0.517,-0.113 -0.384,-0.08 -1.07,-0.185 -2.058,-0.315 -1.802,-0.237 -2.949,-0.369 -3.438,-0.393 -0.254,-0.015 -0.421,-0.026 -0.498,-0.036 -0.252,-0.034 -0.367,-0.132 -0.345,-0.295 0.018,-0.143 0.082,-0.218 0.192,-0.224 0.109,-0.006 0.466,0.01 1.073,0.048 0.525,0.05 0.842,0.003 0.95,-0.14 0.107,-0.144 0.218,-0.651 0.333,-1.522 l 2.018,-15.325 c 0.13,-0.987 0.172,-1.533 0.126,-1.637 -0.095,-0.17 -0.354,-0.303 -0.775,-0.397 -0.269,-0.056 -0.528,-0.11 -0.777,-0.162 -0.383,-0.09 -0.564,-0.212 -0.544,-0.367 0.021,-0.154 0.224,-0.206 0.612,-0.155 1.085,0.143 1.899,0.25 2.442,0.321 0.542,0.072 0.949,0.125 1.221,0.161 0.097,0.013 0.402,0.053 0.916,0.121 0.513,0.067 1.002,0.132 1.468,0.193 l 0.261,0.034 c 0.388,0.051 0.57,0.164 0.547,0.338 -0.018,0.136 -0.281,0.19 -0.79,0.163 -0.783,-0.044 -1.253,0.002 -1.408,0.139 -0.157,0.137 -0.292,0.642 -0.407,1.514 l -1.083,8.227 8.75,1.152 1.114,-8.465 c 0.102,-0.773 0.123,-1.228 0.063,-1.363 -0.06,-0.136 -0.327,-0.255 -0.8,-0.356 -0.892,-0.177 -1.328,-0.342 -1.307,-0.497 0.02,-0.154 0.222,-0.206 0.607,-0.156 0.25,0.033 0.635,0.084 1.154,0.152 0.519,0.068 0.913,0.12 1.182,0.156 l 3.98,0.524 c 0.366,0.048 0.537,0.159 0.514,0.334 -0.025,0.193 -0.189,0.251 -0.49,0.172 M 80.187,2.821 C 80.09,2.808 79.958,2.682 79.793,2.444 79.495,2.01 79.075,1.758 78.532,1.686 78.067,1.625 77.74,1.937 77.552,2.622 77.512,2.774 77.433,3.296 77.316,4.187 L 76.6,9.623 c -0.173,1.318 -0.376,2.188 -0.61,2.611 -0.637,1.099 -2.022,1.508 -4.153,1.227 -1.415,-0.186 -2.473,-0.69 -3.173,-1.511 -0.63,-0.754 -0.885,-1.586 -0.765,-2.496 0.061,-0.466 0.255,-0.83 0.582,-1.092 0.328,-0.263 0.712,-0.365 1.153,-0.306 0.844,0.111 1.21,0.592 1.097,1.445 -0.038,0.291 -0.167,0.54 -0.387,0.748 -0.221,0.207 -0.449,0.295 -0.686,0.264 -0.237,-0.031 -0.365,0.031 -0.385,0.186 -0.074,0.562 0.092,1.057 0.499,1.485 0.407,0.428 0.949,0.687 1.628,0.776 1.085,0.143 1.848,-0.259 2.288,-1.207 0.246,-0.519 0.481,-1.632 0.705,-3.337 L 74.489,7.689 C 72.917,7.167 71.825,6.707 71.213,6.312 69.435,5.131 68.65,3.746 68.859,2.157 68.961,1.382 69.315,0.783 69.92,0.36 c 0.605,-0.423 1.321,-0.58 2.151,-0.471 1.542,0.203 2.585,1.07 3.129,2.6 0.239,-1.368 1.023,-1.964 2.354,-1.789 0.636,0.083 1.273,0.35 1.91,0.798 0.637,0.449 0.935,0.838 0.891,1.167 -0.015,0.117 -0.071,0.168 -0.168,0.156 M 74.929,3.016 C 74.555,2.02 73.957,1.468 73.136,1.36 72.601,1.29 72.131,1.43 71.725,1.781 c -0.405,0.35 -0.649,0.836 -0.731,1.456 -0.117,0.891 0.099,1.644 0.65,2.259 0.551,0.615 1.521,1.181 2.91,1.699 L 74.833,5.073 C 74.984,3.929 75.016,3.244 74.929,3.016 M 94.327,4.387 C 93.484,4.276 92.939,4.233 92.692,4.26 c -0.247,0.027 -0.424,0.22 -0.53,0.581 -0.106,0.36 -0.25,1.238 -0.434,2.634 l -1.068,8.11 c -0.271,-0.036 -0.988,-0.13 -2.151,-0.283 -0.872,-0.115 -1.386,-0.183 -1.54,-0.203 L 86.707,15.064 C 86.3,15.011 86.104,14.926 86.119,14.81 c 0.026,-0.193 0.444,-0.226 1.255,-0.099 0.33,0.043 0.551,0.047 0.664,0.013 0.113,-0.034 0.198,-0.194 0.256,-0.481 l 0.125,-0.954 c 0.102,-0.321 0.195,-0.809 0.282,-1.465 l 0.59,-4.483 C 89.469,5.99 89.424,4.984 89.156,4.321 88.784,3.408 88.084,2.884 87.057,2.749 86.107,2.624 85.427,2.917 85.019,3.629 84.761,4.085 84.535,5.056 84.34,6.541 l -1.063,8.072 C 82.706,14.459 82.081,14.337 81.403,14.248 81.345,14.24 81.149,14.227 80.816,14.21 80.15,14.175 79.643,14.134 79.295,14.088 c -0.33,-0.043 -0.486,-0.133 -0.468,-0.268 0.026,-0.194 0.298,-0.237 0.816,-0.129 l 0.378,0.049 c 0.448,0.04 0.718,0.007 0.811,-0.098 0.092,-0.106 0.183,-0.495 0.272,-1.169 l 0.87,-6.61 c 0.168,-1.27 0.294,-2.047 0.38,-2.329 0.086,-0.283 0.277,-0.581 0.573,-0.894 0.724,-0.746 1.797,-1.026 3.22,-0.839 1.595,0.211 2.754,0.994 3.475,2.351 l 0.215,-1.628 c 0.02,-0.155 0.088,-0.225 0.205,-0.21 0.058,0.008 0.123,0.036 0.195,0.085 1.07,0.712 2.354,1.217 3.853,1.513 0.423,0.075 0.626,0.181 0.609,0.316 -0.018,0.136 -0.142,0.189 -0.372,0.159 m 8.874,6.239 c -0.612,0.453 -1.978,0.945 -4.098,1.476 -1.365,0.335 -2.111,0.987 -2.239,1.958 -0.082,0.622 0.063,1.165 0.436,1.629 0.372,0.464 0.888,0.739 1.547,0.826 0.698,0.092 1.341,-0.043 1.931,-0.403 0.59,-0.36 1.037,-0.878 1.343,-1.554 0.252,-0.564 0.436,-0.837 0.552,-0.822 0.155,0.02 0.222,0.108 0.202,0.263 l -0.008,0.058 c -0.251,1.012 -0.398,1.752 -0.44,2.219 l -0.16,1.221 c -0.013,0.097 -0.021,0.155 -0.023,0.175 -0.021,0.155 -0.098,0.223 -0.233,0.206 -0.115,-0.016 -0.189,-0.124 -0.221,-0.325 -0.045,-0.401 -0.27,-0.627 -0.674,-0.68 -0.154,-0.021 -0.33,-0.014 -0.53,0.019 -0.8,0.131 -1.392,0.171 -1.776,0.121 -1.077,-0.142 -1.932,-0.63 -2.565,-1.465 -0.634,-0.834 -0.879,-1.795 -0.735,-2.882 0.214,-1.632 1.451,-2.714 3.709,-3.246 1.139,-0.265 1.827,-0.437 2.064,-0.514 0.237,-0.078 0.508,-0.225 0.812,-0.442 0.543,-0.383 0.865,-0.953 0.965,-1.71 0.089,-0.68 -0.052,-1.252 -0.425,-1.716 C 102.262,4.574 101.727,4.296 101.03,4.204 99.731,4.033 98.628,4.404 97.719,5.318 97.264,5.774 96.92,6.444 96.686,7.327 96.638,7.538 96.537,7.635 96.382,7.614 96.246,7.596 96.192,7.481 96.22,7.268 l 0.042,-0.32 c 0.018,-0.136 0.054,-0.407 0.108,-0.814 0.053,-0.407 0.084,-0.639 0.091,-0.698 0.1,-0.755 0.175,-1.327 0.226,-1.715 0.018,-0.135 0.033,-0.251 0.046,-0.348 0.02,-0.155 0.098,-0.224 0.233,-0.206 0.134,0.017 0.225,0.148 0.271,0.39 0.086,0.386 0.264,0.597 0.534,0.632 0.192,0.026 0.422,-0.013 0.691,-0.116 1.004,-0.341 1.833,-0.468 2.488,-0.382 1.135,0.15 2.06,0.671 2.774,1.566 0.714,0.894 0.997,1.905 0.849,3.031 -0.128,0.971 -0.585,1.75 -1.372,2.338 m 13.599,6.877 c -1.237,1.089 -2.699,1.523 -4.385,1.301 -1.337,-0.176 -2.297,-0.825 -2.878,-1.947 -0.117,0.734 -0.209,1.171 -0.276,1.31 -0.068,0.139 -0.179,0.198 -0.334,0.178 -0.136,-0.018 -0.32,-0.122 -0.551,-0.31 -0.803,-0.638 -1.739,-1.017 -2.807,-1.138 -0.427,-0.056 -0.627,-0.177 -0.603,-0.362 0.019,-0.145 0.116,-0.205 0.29,-0.182 0.039,0.005 0.446,0.059 1.221,0.161 0.518,0.107 0.813,-0.11 0.884,-0.653 l 1.906,-14.476 c 0.219,-1.666 0.327,-2.559 0.323,-2.678 -0.006,-0.257 -0.289,-0.422 -0.851,-0.496 l -0.872,-0.115 c -0.233,-0.031 -0.337,-0.139 -0.313,-0.324 0.019,-0.144 0.31,-0.179 0.872,-0.105 l 1.541,0.203 c 0.271,0.035 0.678,0.089 1.22,0.16 0.524,0.069 0.843,0.111 0.96,0.127 0.213,0.028 0.465,0.061 0.755,0.099 0.31,0.041 0.533,0.07 0.669,0.088 l 0.552,0.073 c 0.252,0.033 0.369,0.118 0.351,0.253 -0.023,0.175 -0.152,0.246 -0.387,0.215 -0.844,-0.111 -1.416,-0.157 -1.718,-0.137 -0.165,0.037 -0.268,0.093 -0.307,0.166 -0.04,0.074 -0.087,0.324 -0.143,0.75 l -0.892,6.773 c 0.822,-0.838 1.875,-1.172 3.159,-1.003 1.633,0.215 2.913,1.044 3.841,2.487 0.927,1.442 1.264,3.133 1.009,5.071 -0.253,1.919 -0.998,3.422 -2.236,4.511 M 115.942,7.472 c -0.394,-0.921 -1.097,-1.449 -2.109,-1.582 -0.896,-0.118 -1.679,0.184 -2.348,0.906 -0.253,0.263 -0.417,0.533 -0.493,0.809 -0.076,0.277 -0.215,1.104 -0.416,2.48 -0.418,2.731 -0.665,4.527 -0.738,5.387 -0.051,0.685 0.136,1.297 0.56,1.837 0.424,0.54 0.977,0.855 1.658,0.945 1.305,0.172 2.366,-0.44 3.183,-1.834 0.608,-1.007 1.012,-2.268 1.211,-3.783 0.269,-2.039 0.099,-3.761 -0.508,-5.165 m 6.509,19.336 c -0.872,-0.115 -1.248,-0.627 -1.128,-1.538 0.046,-0.349 0.21,-0.628 0.494,-0.837 0.284,-0.209 0.61,-0.289 0.978,-0.241 0.872,0.115 1.251,0.608 1.136,1.48 -0.115,0.872 -0.608,1.251 -1.48,1.136 m 5.607,-18.779 c -0.562,-0.074 -0.994,-0.092 -1.294,-0.053 -0.18,0.016 -0.293,0.09 -0.34,0.221 -0.047,0.132 -0.121,0.584 -0.223,1.358 l -1.042,7.917 c -0.069,0.522 -0.119,0.899 -0.149,1.131 -0.031,0.232 -0.044,0.329 -0.038,0.29 -0.102,0.773 -0.249,1.295 -0.44,1.565 l -0.265,-0.208 c -0.845,-0.668 -1.905,-1.114 -3.179,-1.339 -0.323,-0.06 -0.476,-0.15 -0.46,-0.268 0.018,-0.136 0.133,-0.19 0.346,-0.161 0.117,0.015 0.213,0.028 0.291,0.038 l 0.843,0.111 c 0.213,0.028 0.34,0 0.381,-0.083 0.04,-0.084 0.102,-0.367 0.185,-0.848 l 1.16,-8.808 c 0.094,-0.717 0.113,-1.123 0.057,-1.22 -0.057,-0.096 -0.452,-0.202 -1.186,-0.318 -0.387,-0.051 -0.567,-0.179 -0.54,-0.385 0.019,-0.143 0.134,-0.201 0.348,-0.173 0.135,0.018 0.246,0.072 0.333,0.162 l 3.023,0.398 c 0.388,0.051 0.875,0.096 1.461,0.134 0.49,0.025 0.725,0.036 0.706,0.033 0.329,0.044 0.482,0.152 0.459,0.327 -0.02,0.155 -0.166,0.215 -0.437,0.179 m 12.516,4.664 c -0.136,-0.018 -0.233,-0.11 -0.29,-0.275 -0.412,-1.059 -0.828,-1.794 -1.247,-2.204 -0.419,-0.41 -1.017,-0.667 -1.791,-0.769 -1.357,-0.178 -2.478,0.209 -3.362,1.164 -0.885,0.954 -1.456,2.406 -1.712,4.356 -0.077,0.579 -0.108,1.194 -0.095,1.844 2.182,0.346 3.341,0.528 3.477,0.546 l 2.034,0.268 c 1.03,0.116 1.848,0.263 2.456,0.441 -0.224,1.252 -0.854,2.219 -1.89,2.901 -1.036,0.682 -2.242,0.932 -3.618,0.751 -1.667,-0.219 -2.972,-1.052 -3.915,-2.497 -0.944,-1.445 -1.287,-3.137 -1.032,-5.074 0.245,-1.861 1.036,-3.344 2.374,-4.449 1.339,-1.105 2.88,-1.543 4.624,-1.313 1.395,0.184 2.453,0.756 3.174,1.719 0.269,0.35 0.522,0.793 0.757,1.327 0.235,0.534 0.34,0.897 0.315,1.091 -0.018,0.135 -0.105,0.193 -0.259,0.173 m -8.486,4.708 c 0.081,2.377 0.907,3.669 2.476,3.875 1.589,0.209 2.575,-0.844 2.959,-3.159 z m 21.766,2.143 c -0.587,0.456 -1.239,0.637 -1.954,0.543 -0.764,-0.101 -1.372,-0.441 -1.822,-1.021 -0.451,-0.58 -0.626,-1.246 -0.527,-1.998 0.097,-0.74 0.439,-1.335 1.025,-1.785 0.586,-0.449 1.249,-0.625 1.989,-0.528 0.74,0.097 1.334,0.439 1.784,1.025 0.45,0.586 0.626,1.249 0.528,1.989 -0.095,0.727 -0.437,1.319 -1.023,1.775" /></g><g
           transform="translate(397.8893,381.3967)"
           id="g44"><path
             id="path46"
             style="fill:#322f30;fill-opacity:1;fill-rule:nonzero;stroke:none"
             d="m 0,0 c 0.708,0.76 43.557,74.821 45.639,78.114 2.081,3.293 3.11,5.051 5.186,4.467 2.076,-0.583 1.706,-2.962 -0.417,-6.951 C 48.285,71.642 5.067,-2.746 5.067,-2.746 c 0,0 3.535,-1.573 3.825,-1.939 C 9.311,-5.211 8.435,-7.657 7.882,-8.147 7.33,-8.637 4.22,-7.97 3.016,-9.433 1.812,-10.895 -3.453,-24.977 -8.188,-32.401 c -4.736,-7.424 -8.417,-10.159 -9.927,-10.906 0,0 -1.381,-5.843 -4.199,-7.025 -2.937,-1.233 -6.725,1.275 -5.638,4.389 1.509,4.326 2.907,5.834 4.155,6.282 0,0 0.573,7.221 4.764,13.701 4.191,6.481 14.806,20.04 14.57,21.345 -0.235,1.304 -1.791,3.281 -1.381,4.303 0.41,1.022 1.451,2.669 2.395,2.124 C -2.505,1.267 0,0 0,0" /></g><g
           transform="translate(477.9153,369.5346)"
           id="g48"><path
             id="path50"
             style="fill:#ffffff;fill-opacity:1;fill-rule:nonzero;stroke:none"
             d="M 0,0 C 0.863,-0.549 1.118,-1.698 0.568,-2.561 0.019,-3.424 -1.13,-3.679 -1.993,-3.129 -2.856,-2.58 -3.11,-1.431 -2.561,-0.568 -2.011,0.295 -0.863,0.549 0,0" /></g><g
           transform="translate(475.8521,361.4911)"
           id="g52"><path
             id="path54"
             style="fill:#ffffff;fill-opacity:1;fill-rule:nonzero;stroke:none"
             d="m 0,0 -0.146,0.109 c -0.038,0.029 -0.047,0.081 -0.023,0.121 0.001,0 0.001,0 0.001,0.001 0.025,0.039 0.076,0.053 0.117,0.032 l 0.16,-0.08 C 0.147,0.166 0.191,0.144 0.24,0.118 0.327,0.073 0.435,0.017 0.57,-0.034 1.041,-0.246 1.659,-0.384 2.268,-0.412 2.953,-0.457 3.771,-0.25 4.57,0.17 4.972,0.398 5.343,0.666 5.671,0.967 6.013,1.294 6.32,1.657 6.584,2.045 6.634,2.117 6.682,2.19 6.729,2.263 6.936,2.589 7.116,2.932 7.264,3.281 7.434,3.718 7.553,4.16 7.618,4.595 7.73,5.497 7.637,6.337 7.357,6.963 7.118,7.527 6.773,8.057 6.406,8.423 6.316,8.528 6.225,8.609 6.152,8.675 6.11,8.711 6.074,8.744 6.048,8.771 L 5.913,8.895 C 5.881,8.925 5.875,8.974 5.899,9.011 5.9,9.013 5.902,9.015 5.903,9.018 5.932,9.055 5.985,9.064 6.024,9.038 l 0.157,-0.1 C 6.212,8.917 6.25,8.893 6.293,8.867 6.383,8.811 6.495,8.743 6.615,8.646 7.158,8.218 7.561,7.743 7.847,7.193 8.26,6.424 8.443,5.446 8.35,4.507 8.291,4.008 8.17,3.502 7.991,2.999 7.81,2.531 7.58,2.077 7.308,1.65 L 7.261,1.577 C 6.951,1.147 6.592,0.748 6.195,0.39 5.807,0.054 5.377,-0.24 4.913,-0.484 4.075,-0.902 3.094,-1.073 2.222,-0.953 1.417,-0.853 0.813,-0.536 0.429,-0.306 0.298,-0.227 0.194,-0.147 0.111,-0.083 0.071,-0.052 0.035,-0.024 0,0" /></g><g
           transform="translate(478.2415,372.8632)"
           id="g56"><path
             id="path58"
             style="fill:#ffffff;fill-opacity:1;fill-rule:nonzero;stroke:none"
             d="m 0,0 c 0.026,0.04 0.016,0.094 -0.023,0.122 -2.053,1.513 -4.273,3.064 -7.197,5.027 -0.823,0.56 -1.669,1.116 -2.488,1.654 -0.389,0.255 -0.778,0.511 -1.167,0.768 l -3.684,2.378 -3.711,2.334 c -0.414,0.253 -0.826,0.507 -1.238,0.761 -0.818,0.505 -1.664,1.027 -2.505,1.527 -2.999,1.81 -5.343,3.165 -7.599,4.394 -0.042,0.023 -0.094,0.009 -0.12,-0.031 -0.026,-0.041 -0.016,-0.094 0.023,-0.122 1.135,-0.837 2.343,-1.7 3.692,-2.638 l 0.014,-0.066 c 0.018,-0.087 0.039,-0.192 0.068,-0.31 l 0.044,-0.186 c 0.03,-0.131 0.063,-0.272 0.103,-0.418 l 0.185,-0.684 0.205,-0.682 c 0.042,-0.14 0.087,-0.273 0.129,-0.396 l 0.065,-0.194 c 0.038,-0.115 0.076,-0.216 0.108,-0.3 l 0.036,-0.098 -0.695,0.013 c -0.226,0.004 -0.427,0.003 -0.595,0.003 h -0.236 l -0.317,-0.003 c -0.032,-10e-4 -0.06,-0.017 -0.076,-0.042 -0.008,-0.013 -0.013,-0.029 -0.014,-0.045 -0.002,-0.049 0.035,-0.09 0.083,-0.095 l 0.314,-0.028 0.236,-0.018 c 0.168,-0.014 0.369,-0.031 0.595,-0.044 l 0.366,-0.024 c 0.25,-0.016 0.522,-0.034 0.806,-0.047 l 1.041,-0.05 0.307,-1.254 -0.233,-0.003 c -0.247,-0.003 -0.465,-0.012 -0.643,-0.019 l -0.193,-0.007 -0.318,-0.016 c -0.03,-0.002 -0.057,-0.018 -0.072,-0.042 -0.009,-0.014 -0.015,-0.031 -0.014,-0.049 0,-0.049 0.038,-0.088 0.086,-0.091 l 0.317,-0.015 0.834,-0.033 0.31,-0.01 c 0.016,-0.04 0.058,-0.064 0.101,-0.057 0.026,0.005 0.047,0.02 0.06,0.041 0.002,0.003 0.004,0.007 0.006,0.01 l 1.476,-0.047 0.104,-0.468 c 0.043,-0.195 0.089,-0.382 0.132,-0.554 l 0.064,-0.26 c 0.039,-0.16 0.078,-0.301 0.11,-0.419 l 0.041,-0.155 0.062,-0.218 c 0.014,-0.046 0.06,-0.074 0.107,-0.064 0.024,0.005 0.045,0.02 0.058,0.04 0.011,0.018 0.016,0.039 0.013,0.062 l -0.031,0.222 -0.025,0.167 c -0.018,0.119 -0.04,0.262 -0.069,0.421 l -0.045,0.261 c -0.031,0.176 -0.063,0.366 -0.103,0.563 l -0.078,0.391 2.16,-0.058 0.318,-1.262 0.02,-0.078 -0.456,-0.01 C -19.332,9.445 -19.496,9.436 -19.63,9.428 L -19.786,9.419 -20.03,9.403 c -0.03,-0.002 -0.055,-0.019 -0.07,-0.042 -0.009,-0.014 -0.014,-0.031 -0.014,-0.049 0,-0.048 0.037,-0.088 0.085,-0.091 l 0.242,-0.014 0.639,-0.03 0.541,-0.02 0.214,-0.788 c 0.065,-0.245 0.134,-0.477 0.197,-0.692 l 0.094,-0.322 c 0.056,-0.197 0.111,-0.371 0.156,-0.517 l 0.061,-0.198 0.088,-0.271 c 0.015,-0.046 0.063,-0.073 0.109,-0.06 0.024,0.006 0.042,0.02 0.054,0.039 0.012,0.019 0.017,0.043 0.012,0.067 l -0.056,0.277 -0.045,0.21 c -0.032,0.148 -0.069,0.325 -0.116,0.521 l -0.077,0.331 c -0.05,0.217 -0.105,0.452 -0.167,0.697 l -0.175,0.694 1.044,-0.034 0.76,-0.019 0.148,-0.644 0.08,-0.315 -0.187,-0.011 C -16.444,8.121 -16.47,8.104 -16.485,8.08 -16.494,8.067 -16.499,8.051 -16.499,8.034 -16.5,7.986 -16.465,7.946 -16.418,7.941 l 0.247,-0.024 0.101,-0.399 c 0.048,-0.192 0.099,-0.375 0.147,-0.544 l 0.074,-0.264 c 0.043,-0.158 0.085,-0.298 0.121,-0.414 l 0.047,-0.156 0.068,-0.216 c 0.015,-0.045 0.062,-0.072 0.108,-0.06 0.024,0.005 0.043,0.02 0.056,0.039 0.011,0.019 0.017,0.041 0.013,0.064 l -0.038,0.221 -0.031,0.167 c -0.021,0.119 -0.047,0.261 -0.08,0.419 l -0.055,0.268 c -0.035,0.172 -0.073,0.358 -0.118,0.551 l -0.068,0.295 0.138,-0.012 0.745,-0.056 0.957,-0.068 0.131,-0.677 0.182,-0.834 c 0.038,-0.173 0.079,-0.337 0.117,-0.49 l 0.058,-0.233 c 0.034,-0.141 0.068,-0.264 0.097,-0.368 l 0.038,-0.143 0.057,-0.194 c 0.013,-0.045 0.059,-0.073 0.105,-0.063 0.026,0.005 0.046,0.02 0.059,0.04 0.011,0.017 0.016,0.039 0.013,0.06 l -0.025,0.198 -0.02,0.146 c -0.015,0.107 -0.033,0.235 -0.058,0.378 l -0.039,0.238 c -0.021,0.126 -0.043,0.261 -0.069,0.4 l 0.113,-0.015 c 0.105,-0.015 0.231,-0.033 0.373,-0.048 l 0.236,-0.027 c 0.155,-0.017 0.322,-0.037 0.498,-0.052 l 0.424,-0.036 0.356,-1.251 0.062,-0.203 -0.387,-0.015 c -0.169,-0.006 -0.318,-0.016 -0.444,-0.024 l -0.17,-0.01 -0.234,-0.017 c -0.03,-0.003 -0.055,-0.019 -0.07,-0.042 -0.009,-0.015 -0.014,-0.032 -0.014,-0.05 0,-0.048 0.037,-0.087 0.085,-0.09 l 0.233,-0.014 0.174,-0.008 c 0.125,-0.006 0.275,-0.013 0.443,-0.017 l 0.474,-0.011 0.23,-0.76 c 0.078,-0.262 0.159,-0.511 0.233,-0.742 l 0.113,-0.353 c 0.068,-0.213 0.132,-0.4 0.185,-0.557 l 0.073,-0.215 0.102,-0.292 c 0.016,-0.046 0.065,-0.071 0.112,-0.058 0.021,0.007 0.039,0.021 0.05,0.039 0.013,0.02 0.018,0.045 0.012,0.07 l -0.072,0.299 -0.055,0.223 c -0.04,0.16 -0.087,0.353 -0.145,0.567 l -0.095,0.354 c -0.062,0.236 -0.13,0.491 -0.206,0.756 L -10.84,4.273 -9.76,4.27 -8.859,4.286 -8.795,4.024 -8.547,3.092 C -8.495,2.898 -8.441,2.713 -8.39,2.542 L -8.315,2.284 C -8.271,2.129 -8.227,1.992 -8.19,1.877 l 0.051,-0.162 0.071,-0.216 c 0.015,-0.045 0.063,-0.071 0.109,-0.059 0.023,0.005 0.042,0.02 0.054,0.039 0.012,0.019 0.017,0.042 0.013,0.065 L -7.933,1.766 -7.965,1.93 c -0.023,0.12 -0.051,0.262 -0.086,0.422 l -0.058,0.261 c -0.038,0.175 -0.079,0.363 -0.127,0.559 l -0.223,0.919 -0.055,0.205 c 0.107,0.004 0.577,0.022 0.577,0.022 l 0.271,0.015 C -4.676,2.53 -2.348,1.184 -0.12,-0.031 -0.078,-0.054 -0.026,-0.04 0,0 m -21.727,13.259 c 0.299,-0.201 0.598,-0.401 0.898,-0.6 0,0 -0.595,0.038 -0.763,0.048 0,0 -0.127,0.519 -0.135,0.552 m -1.684,0.065 -0.23,0.851 c -0.047,0.166 -0.096,0.323 -0.144,0.468 0.423,-0.287 0.847,-0.574 1.272,-0.859 0.1,-0.069 0.202,-0.136 0.304,-0.203 l 0.183,-0.122 c 0.016,-0.106 0.034,-0.225 0.058,-0.359 l 0.067,-0.376 -1.393,0.065 z m 7.623,-3.942 c -0.122,0.009 -0.248,0.017 -0.379,0.024 l -0.029,10e-4 c 0,0 -0.054,0.209 -0.075,0.285 z m 2.064,-1.313 c -10e-4,0.002 -10e-4,0.004 -0.002,0.007 l 0.012,-0.008 z m 2.43,-1.729 -0.165,0.01 c -0.04,0.129 -0.079,0.254 -0.118,0.375 l 0.678,-0.419 z m -7.485,4.742 c -0.027,0.096 -0.054,0.189 -0.08,0.28 l 0.48,-0.31 c -0.01,0.001 -0.4,0.03 -0.4,0.03 M -8.098,4.593 c 0,0 -0.363,0.009 -0.498,0.011 l -0.093,0.349 c 0.197,-0.12 0.393,-0.241 0.591,-0.36 m -0.839,0.015 -0.864,0.003 -0.995,-0.017 -0.134,-0.004 -0.081,0.286 -0.341,1.126 0.071,-0.006 0.844,-0.051 0.135,-0.006 c 0.286,-0.177 1.226,-0.751 1.226,-0.751 0,0 0.036,-0.157 0.053,-0.23 z m -3.16,1.781 c -0.175,0.011 -0.342,0.016 -0.497,0.021 l -0.24,0.008 c -0.143,0.006 -0.271,0.007 -0.378,0.007 l -0.169,0.002 -0.139,0.715 -0.129,0.588 0.527,-0.035 1.175,-0.737 c 0.05,-0.189 0.102,-0.384 0.158,-0.588 z m -2.828,1.751 c -0.213,0.009 -0.415,0.008 -0.597,0.008 l -0.155,-10e-4 c -0.075,10e-4 -0.143,-10e-4 -0.208,-0.002 l -0.088,0.382 -0.141,0.557 0.812,-0.016 0.128,-0.083 1.087,-0.683 c 0.011,-0.066 0.023,-0.134 0.036,-0.204 z m -2.277,1.313 -1.038,0.012 -0.099,-10e-4 -0.049,0.191 -0.308,1.135 0.749,-0.016 1.309,-0.845 c 0.033,-0.162 0.067,-0.329 0.108,-0.506 z m -2.387,1.68 -1.351,0.058 -0.315,0.005 -0.042,0.209 -0.22,0.99 c 0.147,-0.004 0.788,-0.014 0.788,-0.014 0.117,-0.002 0.225,-0.003 0.328,-0.004 l 1.183,-0.779 0.117,-0.493 c -0.157,0.01 -0.32,0.02 -0.488,0.028 m -2.013,0.069 -0.693,0.011 c -0.258,0.002 -0.498,0 -0.727,-0.003 l -0.009,0.07 c -0.014,0.118 -0.031,0.264 -0.059,0.43 l -0.022,0.134 c -0.03,0.184 -0.063,0.387 -0.106,0.601 l 1.375,-0.044 c 0.008,-0.041 0.211,-1.064 0.211,-1.064 z m -2.978,1.628 c -0.09,0.003 -0.175,0.005 -0.261,0.006 l -0.033,0.163 c -0.018,0.089 -0.039,0.195 -0.068,0.314 l -0.045,0.19 c -0.03,0.129 -0.063,0.269 -0.102,0.414 l -0.185,0.684 -0.206,0.681 c -0.043,0.145 -0.09,0.281 -0.133,0.407 0,0 -0.081,0.241 -0.09,0.268 0.517,-0.359 1.036,-0.715 1.556,-1.069 l 0.513,-2.088 z" /></g><g
           transform="translate(447.0099,388.3477)"
           id="g60"><path
             id="path62"
             style="fill:#ffffff;fill-opacity:1;fill-rule:nonzero;stroke:none"
             d="M 0,0 C 0.549,0.863 1.698,1.118 2.561,0.568 3.424,0.019 3.679,-1.13 3.129,-1.993 2.58,-2.856 1.431,-3.11 0.568,-2.561 -0.295,-2.011 -0.55,-0.863 0,0" /></g><g
           transform="translate(429.6725,386.9535)"
           id="g64"><path
             id="path66"
             style="fill:#ffffff;fill-opacity:1;fill-rule:nonzero;stroke:none"
             d="m 0,0 c 0.029,-0.012 0.062,-0.008 0.088,0.01 3,2.155 5.609,2.442 7.27,2.302 C 7.791,2.276 8.22,2.207 8.632,2.107 8.671,2.097 8.71,2.115 8.73,2.146 8.734,2.153 8.738,2.16 8.74,2.167 c 0.467,1.453 1.159,2.936 1.949,4.177 0.287,0.451 0.584,0.863 0.881,1.225 0.003,0.003 0.005,0.006 0.007,0.009 0.018,0.03 0.019,0.068 -10e-4,0.098 -0.806,1.247 -0.757,2.678 -0.699,3.236 0.004,0.034 -0.013,0.067 -0.042,0.085 l -68.809,43.82 c -0.031,0.02 -0.072,0.019 -0.102,-0.003 -0.009,-0.007 -0.017,-0.015 -0.023,-0.025 -0.014,-0.021 -0.018,-0.046 -0.012,-0.071 4.484,-17.919 19.865,-31.754 31.978,-40.205 C -13.759,5.879 -2.193,0.909 0,0 M 7.68,3.433 C 7.096,3.577 3.678,4.279 -0.094,2.034 c -1.713,0.515 -5.794,2.824 -6.69,3.337 0.213,0.073 0.59,0.206 1.053,0.387 l 4.15,-2.015 c 0.042,-0.02 0.092,-0.006 0.116,0.033 0.001,0.001 0.001,0.002 0.002,0.002 0.024,0.041 0.013,0.093 -0.025,0.121 L -4.694,6.19 C -4.35,6.343 -4.017,6.501 -3.7,6.661 L 0.516,4.21 C 0.556,4.186 0.609,4.198 0.636,4.236 0.637,4.238 0.637,4.239 0.638,4.24 0.662,4.278 0.655,4.329 0.619,4.358 L -2.777,7.165 C -2.45,7.358 -2.151,7.552 -1.885,7.744 -0.231,6.87 1.395,5.962 2.948,5.046 2.989,5.021 3.042,5.033 3.069,5.072 3.07,5.073 3.071,5.074 3.071,5.075 3.096,5.114 3.088,5.166 3.051,5.195 1.712,6.268 0.312,7.34 -1.113,8.382 c 0.253,0.244 0.46,0.491 0.616,0.736 0.059,0.093 0.112,0.187 0.157,0.281 L 5.262,6.14 C 5.303,6.116 5.357,6.128 5.383,6.168 5.384,6.169 5.384,6.169 5.384,6.169 5.41,6.21 5.4,6.263 5.362,6.291 l -5.495,4.101 c -0.047,0.55 -0.364,1.088 -0.943,1.599 -0.009,0.007 -0.634,0.441 -1.741,1.201 -0.031,0.021 -0.072,0.021 -0.103,-10e-4 -0.01,-0.007 -0.018,-0.015 -0.025,-0.026 -0.013,-0.02 -0.017,-0.045 -0.011,-0.07 0.14,-0.583 0.265,-1.134 0.38,-1.674 -0.778,1.109 -1.605,2.211 -2.46,3.282 -0.714,0.49 -1.484,1.011 -2.319,1.575 -0.032,0.021 -0.074,0.02 -0.105,-0.003 -0.009,-0.006 -0.017,-0.015 -0.023,-0.024 -0.014,-0.022 -0.018,-0.049 -0.01,-0.075 0.262,-0.877 0.551,-1.748 0.863,-2.597 -0.943,1.256 -1.842,2.598 -2.676,3.999 -0.007,0.012 -0.017,0.021 -0.028,0.029 -0.644,0.431 -1.315,0.879 -2.01,1.341 -0.032,0.021 -0.075,0.02 -0.106,-0.004 -0.008,-0.007 -0.016,-0.014 -0.021,-0.023 -0.015,-0.023 -0.018,-0.052 -0.009,-0.079 l 0.852,-2.462 -2.815,3.95 c -0.007,0.009 -0.015,0.017 -0.024,0.023 -0.981,0.647 -1.996,1.312 -3.035,1.989 -0.033,0.022 -0.077,0.019 -0.107,-0.006 -0.008,-0.006 -0.015,-0.014 -0.02,-0.022 -0.015,-0.024 -0.018,-0.054 -0.008,-0.082 l 1.172,-2.965 -3.299,4.533 c -0.007,0.009 -0.015,0.017 -0.025,0.023 -0.875,0.564 -1.763,1.133 -2.658,1.702 -0.033,0.021 -0.075,0.019 -0.106,-0.006 -0.007,-0.007 -0.014,-0.014 -0.019,-0.022 -0.015,-0.024 -0.019,-0.054 -0.008,-0.081 l 0.965,-2.534 -2.97,3.988 c -0.006,0.009 -0.015,0.017 -0.024,0.023 -1.011,0.634 -2.024,1.265 -3.034,1.887 -0.033,0.02 -0.075,0.017 -0.105,-0.007 -0.008,-0.006 -0.014,-0.014 -0.019,-0.021 -0.015,-0.024 -0.019,-0.054 -0.008,-0.082 0.333,-0.873 0.656,-1.759 0.964,-2.642 -0.969,1.372 -2,2.753 -3.069,4.112 -0.007,0.009 -0.015,0.016 -0.025,0.022 -1.056,0.639 -2.093,1.257 -3.082,1.838 -0.033,0.019 -0.074,0.016 -0.103,-0.008 -0.008,-0.006 -0.014,-0.014 -0.02,-0.022 -0.014,-0.023 -0.018,-0.051 -0.009,-0.078 0.333,-0.973 0.678,-1.925 1.029,-2.839 -1.038,1.332 -2.063,2.738 -3.053,4.186 -0.007,0.011 -0.018,0.021 -0.03,0.028 -0.664,0.379 -1.317,0.747 -1.957,1.102 -0.033,0.018 -0.074,0.014 -0.103,-0.01 -0.007,-0.006 -0.013,-0.013 -0.018,-0.021 -0.015,-0.023 -0.018,-0.053 -0.008,-0.08 0.339,-0.932 0.692,-1.844 1.052,-2.719 -1.053,1.263 -2.09,2.605 -3.088,3.994 -0.008,0.011 -0.019,0.021 -0.032,0.027 -3.048,1.615 -5.477,2.72 -7.218,3.284 -0.034,0.011 -0.071,10e-4 -0.095,-0.025 -0.004,-0.004 -0.007,-0.008 -0.01,-0.013 -0.016,-0.024 -0.019,-0.055 -0.007,-0.083 0.563,-1.378 1.355,-2.795 2.352,-4.212 1.117,-1.593 2.382,-3.078 3.782,-4.643 -1.448,1.245 -2.988,2.623 -4.391,4.153 -1.592,1.737 -2.776,3.445 -3.621,5.222 -0.014,0.03 -0.044,0.05 -0.077,0.051 -0.634,0.034 -1.071,-0.104 -1.298,-0.411 -2.929,3.612 -5.25,10.552 -5.691,11.923 L 8.598,10.559 C 8.655,10.331 8.992,9.133 10.088,7.655 9.929,7.498 9.477,7.021 8.964,6.216 8.424,5.369 7.992,4.432 7.68,3.433 m -22.077,6.088 c -0.601,0.317 -1.205,0.652 -1.789,0.976 -0.314,0.174 -0.627,0.348 -0.941,0.521 -0.586,0.324 -1.175,0.668 -1.745,1.001 -0.317,0.185 -0.634,0.37 -0.953,0.554 -0.854,0.503 -1.714,1.031 -2.546,1.543 l -0.117,0.072 -2.627,1.679 c -0.56,0.368 -1.122,0.755 -1.666,1.13 -0.304,0.208 -0.607,0.417 -0.912,0.624 -0.565,0.389 -1.131,0.801 -1.677,1.199 -0.285,0.208 -0.57,0.415 -0.856,0.621 -3.644,2.721 -6.743,5.374 -9.474,8.108 -2.647,2.635 -4.939,5.358 -6.832,8.115 0.272,-0.34 0.534,-0.669 0.787,-0.991 0.43,-0.514 0.884,-1.017 1.324,-1.503 0.247,-0.273 0.494,-0.546 0.737,-0.822 0.073,-0.078 0.141,-0.157 0.21,-0.235 0.101,-0.118 0.203,-0.234 0.313,-0.344 l 1.626,-1.659 c 0.521,-0.555 1.087,-1.084 1.635,-1.596 0.198,-0.185 0.396,-0.371 0.593,-0.558 0.133,-0.123 0.263,-0.247 0.394,-0.371 0.244,-0.231 0.488,-0.462 0.741,-0.685 l 2.329,-2.038 c 0.256,-0.218 0.517,-0.43 0.778,-0.64 0.141,-0.114 0.282,-0.228 0.422,-0.343 0.257,-0.207 0.511,-0.416 0.764,-0.626 0.534,-0.439 1.086,-0.894 1.652,-1.315 l 1.839,-1.416 0.628,-0.457 c 0.309,-0.223 0.615,-0.45 0.922,-0.677 0.515,-0.381 1.048,-0.775 1.583,-1.148 l 2.547,-1.767 2.576,-1.728 2.605,-1.688 c 2.631,-1.673 5.341,-3.33 7.961,-4.931 0.278,-0.171 0.557,-0.341 0.835,-0.511 -0.298,0.151 -0.601,0.308 -0.906,0.467 -0.924,0.472 -1.843,0.954 -2.76,1.439" /></g><g
           transform="translate(441.0327,391.9045)"
           id="g68"><path
             id="path70"
             style="fill:#ffffff;fill-opacity:1;fill-rule:nonzero;stroke:none"
             d="M 0,0 C 1.008,1.583 2.218,2.642 3.5,3.064 3.526,3.072 3.554,3.069 3.577,3.054 L 5.967,1.532 C 6.001,1.511 6.016,1.47 6.006,1.431 6.003,1.423 6,1.414 5.995,1.407 5.979,1.382 5.951,1.366 5.921,1.365 5.906,1.364 4.39,1.299 2.221,-0.576 2.47,-1.359 2.841,-2.081 3.325,-2.723 3.348,-2.754 3.349,-2.796 3.329,-2.827 3.326,-2.832 3.322,-2.837 3.318,-2.841 3.287,-2.873 3.238,-2.878 3.201,-2.853 2.562,-2.415 1.99,-1.876 1.497,-1.249 1.314,-1.431 1.128,-1.625 0.943,-1.827 1.062,-2.415 1.306,-2.993 1.648,-3.502 1.669,-3.532 1.669,-3.571 1.65,-3.601 1.647,-3.606 1.644,-3.61 1.64,-3.614 1.612,-3.645 1.566,-3.652 1.529,-3.632 1.065,-3.376 0.635,-3.039 0.25,-2.631 0.057,-2.868 -0.134,-3.112 -0.319,-3.358 c 0.11,-0.585 0.341,-1.157 0.67,-1.657 0.02,-0.03 0.02,-0.069 0.001,-0.099 C 0.349,-5.118 0.345,-5.123 0.341,-5.127 0.313,-5.158 0.266,-5.165 0.23,-5.143 c -0.423,0.246 -0.813,0.558 -1.161,0.929 -0.176,-0.258 -0.355,-0.526 -0.534,-0.808 -0.099,-0.156 -0.199,-0.315 -0.299,-0.479 0,-10e-4 0,-10e-4 -10e-4,-0.002 -0.021,-0.033 -0.06,-0.049 -0.098,-0.039 -0.039,0.009 -0.067,0.043 -0.069,0.082 -0.056,0.904 0.6,3.368 1.932,5.46" /></g><g
           transform="translate(468.9111,369.5616)"
           id="g72"><path
             id="path74"
             style="fill:#ffffff;fill-opacity:1;fill-rule:nonzero;stroke:none"
             d="M 0,0 0.666,-0.95 C 0.942,-1.323 1.151,-1.682 1.336,-1.998 1.393,-2.096 1.448,-2.19 1.503,-2.28 L 2.18,-3.457 C 2.198,-3.487 2.196,-3.523 2.178,-3.551 2.171,-3.562 2.162,-3.572 2.15,-3.579 2.109,-3.605 2.055,-3.594 2.027,-3.555 l -0.782,1.11 -0.123,0.18 c -0.219,0.32 -0.466,0.684 -0.794,1.063 l -0.599,0.742 -0.158,0.198 c -0.159,0.201 -0.324,0.409 -0.516,0.608 -1.132,1.281 -2.331,2.461 -3.565,3.51 -1.213,1.086 -2.715,2.205 -4.593,3.421 l -1.234,0.788 c -0.265,0.16 -0.533,0.313 -0.799,0.467 -0.154,0.088 -0.307,0.175 -0.458,0.263 l -0.622,0.357 -0.631,0.33 c -0.151,0.078 -0.301,0.157 -0.45,0.235 -0.264,0.14 -0.527,0.279 -0.793,0.406 -1.762,0.863 -3.302,1.56 -4.577,2.074 l -1.871,0.742 -0.539,0.203 c -0.34,0.129 -0.646,0.245 -0.916,0.341 l -1.276,0.461 c -0.046,0.016 -0.071,0.066 -0.056,0.112 0.002,0.008 0.006,0.015 0.01,0.022 0.021,0.032 0.06,0.049 0.099,0.039 l 1.317,-0.342 1.499,-0.437 c 0.535,-0.168 1.202,-0.376 1.926,-0.634 1.469,-0.532 3.057,-1.133 4.705,-1.916 0.273,-0.126 0.544,-0.264 0.817,-0.403 0.15,-0.077 0.3,-0.153 0.453,-0.229 l 0.648,-0.327 c 0,0 0.935,-0.519 1.084,-0.602 0.281,-0.155 0.563,-0.312 0.843,-0.477 L -8.656,7.967 C -6.762,6.702 -5.246,5.538 -4.021,4.408 -2.656,3.216 -1.537,1.918 -0.532,0.697 -0.33,0.469 -0.162,0.231 0,0" /></g><g
           transform="translate(464.3758,381.1337)"
           id="g76"><path
             id="path78"
             style="fill:#322f30;fill-opacity:1;fill-rule:nonzero;stroke:none"
             d="M 0,0 0.521,-0.327 C 0.373,-0.314 0.222,-0.3 0.067,-0.286 0.045,-0.187 0.023,-0.093 0,0" /></g><g
           transform="translate(466.9803,379.1097)"
           id="g80"><path
             id="path82"
             style="fill:#322f30;fill-opacity:1;fill-rule:nonzero;stroke:none"
             d="M 0,0 C -0.089,0.005 -0.177,0.011 -0.266,0.016 -0.34,0.255 -0.411,0.478 -0.478,0.688 L -0.152,0.483 C 0.145,0.301 0.44,0.119 0.736,-0.063 0.498,-0.043 0.25,-0.022 0,0" /></g><g
           transform="translate(462.0635,382.0398)"
           id="g84"><path
             id="path86"
             style="fill:#322f30;fill-opacity:1;fill-rule:nonzero;stroke:none"
             d="m 0,0 c 0.329,-0.007 0.638,-0.013 0.901,-0.018 0.001,0 0.002,0 0.002,0 l 0.151,-0.097 1.12,-0.704 C 2.193,-0.934 2.214,-1.054 2.238,-1.179 2.194,-1.175 2.15,-1.172 2.106,-1.168 1.814,-1.154 1.522,-1.14 1.249,-1.127 0.975,-1.116 0.719,-1.12 0.5,-1.12 0.398,-1.12 0.306,-1.122 0.221,-1.125 0.187,-0.975 0.152,-0.823 0.116,-0.67 0.059,-0.443 0.002,-0.218 -0.054,0.001 -0.036,0.001 -0.017,0 0,0" /></g><g
           transform="translate(469.4035,378.0133)"
           id="g88"><path
             id="path90"
             style="fill:#322f30;fill-opacity:1;fill-rule:nonzero;stroke:none"
             d="m 0,0 c 0.361,-0.221 0.722,-0.442 1.086,-0.659 -0.059,0.002 -0.122,0.005 -0.187,0.007 -0.215,0.004 -0.465,0.013 -0.727,0.016 -0.046,0.17 -0.09,0.338 -0.134,0.5 C 0.026,-0.089 0.013,-0.046 0,0" /></g><g
           transform="translate(454.9095,385.4038)"
           id="g92"><path
             id="path94"
             style="fill:#322f30;fill-opacity:1;fill-rule:nonzero;stroke:none"
             d="M 0,0 C 0.029,-0.001 0.058,-0.003 0.087,-0.004 0.545,-0.019 1.002,-0.033 1.431,-0.047 1.478,-0.048 1.52,-0.049 1.566,-0.05 1.578,-0.116 1.588,-0.179 1.602,-0.247 1.662,-0.546 1.725,-0.866 1.789,-1.186 1.807,-1.268 1.825,-1.349 1.843,-1.431 1.568,-1.427 1.296,-1.423 1.035,-1.419 0.748,-1.416 0.482,-1.419 0.229,-1.423 0.227,-1.409 0.226,-1.398 0.225,-1.382 0.208,-1.253 0.189,-1.067 0.152,-0.846 0.116,-0.625 0.077,-0.367 0.02,-0.092 0.014,-0.062 0.007,-0.03 0,0" /></g><g
           transform="translate(462.0694,382.1785)"
           id="g96"><path
             id="path98"
             style="fill:#322f30;fill-opacity:1;fill-rule:nonzero;stroke:none"
             d="M 0,0 C -0.031,0.001 -0.064,0.003 -0.096,0.004 -0.105,0.042 -0.115,0.082 -0.125,0.12 -0.166,0.282 -0.208,0.436 -0.25,0.583 L 0.738,-0.054 C 0.512,-0.035 0.267,-0.014 0,0" /></g><g
           transform="translate(465.0119,380.6566)"
           id="g100"><path
             id="path102"
             style="fill:#322f30;fill-opacity:1;fill-rule:nonzero;stroke:none"
             d="m 0,0 c 0.047,-0.003 0.091,-0.006 0.137,-0.009 l 1.224,-0.769 c 0.061,-0.229 0.128,-0.479 0.201,-0.744 -0.148,0.009 -0.294,0.018 -0.435,0.026 -0.268,0.017 -0.52,0.021 -0.735,0.03 -0.215,0.008 -0.395,0.006 -0.521,0.008 -0.038,0 -0.07,0 -0.098,0 -0.049,0.253 -0.101,0.521 -0.152,0.789 -0.053,0.239 -0.105,0.476 -0.155,0.704 C -0.352,0.023 -0.172,0.011 0,0" /></g><g
           transform="translate(457.5178,385.4245)"
           id="g104"><path
             id="path106"
             style="fill:#322f30;fill-opacity:1;fill-rule:nonzero;stroke:none"
             d="M 0,0 C -0.28,0.017 -0.6,0.04 -0.941,0.059 -0.985,0.242 -1.029,0.418 -1.067,0.574 -1.096,0.697 -1.126,0.808 -1.153,0.907 -0.692,0.598 -0.231,0.289 0.232,-0.016 0.158,-0.01 0.081,-0.005 0,0" /></g><g
           transform="translate(456.2992,386.3755)"
           id="g108"><path
             id="path110"
             style="fill:#322f30;fill-opacity:1;fill-rule:nonzero;stroke:none"
             d="m 0,0 c 0.017,-0.114 0.037,-0.247 0.064,-0.396 0.027,-0.148 0.056,-0.315 0.087,-0.489 -0.035,0.001 -0.069,0.003 -0.104,0.005 -0.429,0.021 -0.886,0.042 -1.343,0.064 -0.043,0.002 -0.086,0.003 -0.129,0.004 -0.043,0.198 -0.087,0.4 -0.132,0.604 C -1.635,0.081 -1.713,0.369 -1.786,0.639 -1.861,0.903 -1.944,1.146 -2.013,1.356 -1.516,1.019 -1.019,0.682 -0.52,0.347 -0.348,0.23 -0.173,0.116 0,0" /></g><g
           transform="translate(454.3791,386.9783)"
           id="g112"><path
             id="path114"
             style="fill:#322f30;fill-opacity:1;fill-rule:nonzero;stroke:none"
             d="m 0,0 c 0.066,-0.271 0.137,-0.56 0.207,-0.848 0.047,-0.19 0.092,-0.377 0.138,-0.562 -0.364,0.012 -0.724,0.023 -1.066,0.034 -0.115,0.004 -0.222,0.005 -0.333,0.008 -0.005,0.028 -0.013,0.066 -0.022,0.115 -0.023,0.104 -0.049,0.253 -0.092,0.429 -0.043,0.176 -0.087,0.383 -0.147,0.601 -0.058,0.219 -0.121,0.452 -0.184,0.685 -0.07,0.231 -0.14,0.462 -0.206,0.679 -0.065,0.217 -0.137,0.416 -0.193,0.588 -0.047,0.142 -0.091,0.256 -0.126,0.35 0.605,-0.42 1.211,-0.836 1.82,-1.25 C -0.197,0.798 -0.191,0.773 -0.183,0.74 -0.129,0.524 -0.067,0.27 0,0" /></g><g
           transform="translate(459.8215,383.7371)"
           id="g116"><path
             id="path118"
             style="fill:#322f30;fill-opacity:1;fill-rule:nonzero;stroke:none"
             d="M 0,0 C 0.185,-0.004 0.352,-0.007 0.5,-0.01 L 1.864,-0.889 C 1.901,-1.072 1.94,-1.264 1.988,-1.472 1.994,-1.496 2,-1.523 2.005,-1.548 1.747,-1.536 1.482,-1.524 1.214,-1.512 0.862,-1.508 0.509,-1.503 0.179,-1.5 0.12,-1.499 0.067,-1.501 0.01,-1.501 -0.009,-1.425 -0.028,-1.35 -0.047,-1.274 -0.155,-0.877 -0.263,-0.48 -0.364,-0.108 -0.375,-0.067 -0.386,-0.03 -0.397,0.01 -0.259,0.007 -0.125,0.003 0,0" /></g><g
           transform="translate(456.6474,385.1857)"
           id="g120"><path
             id="path122"
             style="fill:#322f30;fill-opacity:1;fill-rule:nonzero;stroke:none"
             d="M 0,0 C -0.013,0.058 -0.026,0.11 -0.039,0.165 0.287,0.158 0.598,0.155 0.867,0.149 0.994,0.147 1.11,0.146 1.22,0.146 1.632,-0.125 2.045,-0.396 2.456,-0.668 2.503,-0.867 2.554,-1.086 2.61,-1.317 2.416,-1.303 2.212,-1.29 2.001,-1.28 1.57,-1.261 1.11,-1.241 0.65,-1.222 0.52,-1.22 0.393,-1.218 0.264,-1.216 0.245,-1.122 0.227,-1.029 0.208,-0.935 0.137,-0.617 0.066,-0.298 0,0" /></g><g
           transform="translate(460.2185,383.7941)"
           id="g124"><path
             id="path126"
             style="fill:#322f30;fill-opacity:1;fill-rule:nonzero;stroke:none"
             d="m 0,0 c -0.121,0.011 -0.25,0.023 -0.392,0.033 -0.136,0.01 -0.282,0.021 -0.434,0.032 -0.058,0.205 -0.113,0.397 -0.166,0.577 0.069,-0.045 0.138,-0.09 0.207,-0.136 z" /></g><g
           transform="translate(466.9686,378.9499)"
           id="g128"><path
             id="path130"
             style="fill:#322f30;fill-opacity:1;fill-rule:nonzero;stroke:none"
             d="M 0,0 C 0.286,-0.017 0.573,-0.035 0.841,-0.051 0.896,-0.055 0.946,-0.056 0.998,-0.058 1.424,-0.321 1.851,-0.58 2.278,-0.841 2.298,-0.929 2.316,-1.015 2.339,-1.107 2.375,-1.257 2.413,-1.412 2.451,-1.57 2.138,-1.569 1.805,-1.568 1.472,-1.566 1.134,-1.572 0.795,-1.578 0.478,-1.584 0.408,-1.585 0.343,-1.588 0.275,-1.59 0.242,-1.472 0.208,-1.355 0.174,-1.236 0.045,-0.809 -0.084,-0.383 -0.205,0.018 -0.136,0.012 -0.069,0.006 0,0" /></g><g
           transform="translate(403.0572,400.7398)"
           id="g132"><path
             id="path134"
             style="fill:#322f30;fill-opacity:1;fill-rule:nonzero;stroke:none"
             d="m 0,0 c 13.607,-9.491 26.411,-14.646 26.539,-14.696 l 0.249,-0.1 0.216,0.16 c 3.463,2.577 6.332,2.528 8,2.129 -0.471,-1.855 -0.461,-3.431 0.33,-3.935 2.525,-1.608 11.2,-2.316 21.12,-8.633 9.92,-6.317 8.065,-11.22 15.64,-16.044 7.575,-4.824 15.926,7.096 7.63,12.379 L 41.849,-4.62 c -0.95,0.605 -2.025,0.183 -3.049,-0.795 -0.68,1.262 -0.411,2.674 -0.407,2.693 l 0.066,0.324 -71.328,45.423 0.252,-1.134 C -30.781,33.616 -26.52,25.488 -19.953,17.733 -14.713,11.546 -8,5.579 0,0 m 75.108,-27.828 c -2.562,1.396 -5.073,2.872 -7.567,4.376 -0.091,-0.005 -0.189,-0.01 -0.297,-0.016 -0.205,-0.007 -0.442,-0.018 -0.691,-0.025 0.027,-0.1 0.053,-0.199 0.08,-0.299 0.077,-0.318 0.155,-0.636 0.227,-0.934 0.074,-0.298 0.13,-0.579 0.184,-0.819 0.054,-0.24 0.089,-0.442 0.118,-0.582 0.026,-0.141 0.041,-0.222 0.041,-0.222 0,0 -0.026,0.078 -0.071,0.214 -0.042,0.137 -0.108,0.332 -0.175,0.568 -0.068,0.236 -0.153,0.51 -0.232,0.806 -0.079,0.297 -0.163,0.613 -0.247,0.929 -0.028,0.112 -0.055,0.223 -0.082,0.334 -0.006,0 -0.012,-10e-4 -0.018,-10e-4 -0.317,-0.006 -0.655,-0.012 -0.993,-0.018 -0.338,0.002 -0.677,0.003 -0.993,0.004 -0.059,0 -0.112,0.002 -0.168,0.003 0.076,-0.266 0.151,-0.529 0.222,-0.781 0.116,-0.404 0.212,-0.784 0.3,-1.108 0.088,-0.324 0.151,-0.597 0.2,-0.787 0.046,-0.191 0.072,-0.3 0.072,-0.3 0,0 -0.037,0.106 -0.102,0.291 -0.061,0.186 -0.155,0.45 -0.257,0.771 -0.1,0.32 -0.225,0.692 -0.346,1.094 -0.08,0.265 -0.164,0.542 -0.249,0.822 -0.192,0.005 -0.376,0.01 -0.539,0.013 -0.254,0.005 -0.466,0.02 -0.614,0.025 -0.148,0.009 -0.233,0.014 -0.233,0.014 0,0 0.084,0.007 0.232,0.017 0.148,0.008 0.359,0.025 0.613,0.034 0.153,0.005 0.325,0.013 0.504,0.02 -0.032,0.105 -0.063,0.209 -0.095,0.314 -0.123,0.431 -0.245,0.862 -0.36,1.266 -0.005,0.015 -0.008,0.03 -0.013,0.045 -0.166,0.015 -0.33,0.029 -0.487,0.042 -0.269,0.023 -0.518,0.056 -0.732,0.079 -0.214,0.022 -0.392,0.052 -0.516,0.067 -0.036,0.006 -0.066,0.01 -0.093,0.014 0.002,-0.009 0.004,-0.02 0.006,-0.03 0.052,-0.266 0.089,-0.517 0.126,-0.732 0.037,-0.214 0.058,-0.394 0.077,-0.52 0.016,-0.126 0.025,-0.198 0.025,-0.198 0,0 -0.02,0.07 -0.055,0.192 -0.032,0.123 -0.084,0.297 -0.135,0.508 -0.051,0.212 -0.117,0.457 -0.174,0.722 -0.058,0.265 -0.121,0.548 -0.183,0.831 -0.049,0.254 -0.097,0.506 -0.144,0.746 -0.058,0.004 -0.115,0.008 -0.173,0.012 -0.29,0.021 -0.581,0.041 -0.853,0.061 -0.272,0.02 -0.527,0.04 -0.745,0.056 -0.094,0.008 -0.181,0.015 -0.261,0.022 0.032,-0.141 0.065,-0.281 0.096,-0.416 0.069,-0.298 0.121,-0.579 0.172,-0.818 0.051,-0.239 0.083,-0.441 0.111,-0.581 0.023,-0.141 0.037,-0.222 0.037,-0.222 0,0 -0.025,0.078 -0.068,0.214 -0.04,0.138 -0.103,0.332 -0.167,0.568 -0.064,0.236 -0.146,0.51 -0.221,0.807 -0.038,0.149 -0.077,0.304 -0.117,0.461 -0.039,0.004 -0.076,0.007 -0.109,0.01 -0.127,0.012 -0.2,0.02 -0.2,0.02 0,0 0.073,0.004 0.201,0.011 0.027,0.001 0.065,0.002 0.097,0.004 -0.035,0.139 -0.071,0.28 -0.107,0.422 -0.056,0.242 -0.11,0.48 -0.164,0.713 -0.27,0.007 -0.548,0.014 -0.829,0.021 -0.352,0.011 -0.703,0.022 -1.033,0.033 -0.046,10e-4 -0.088,0.003 -0.133,0.004 0.07,-0.276 0.139,-0.55 0.205,-0.811 0.095,-0.374 0.172,-0.726 0.244,-1.026 0.071,-0.3 0.121,-0.553 0.16,-0.729 0.036,-0.176 0.057,-0.277 0.057,-0.277 0,0 -0.032,0.098 -0.087,0.269 -0.052,0.173 -0.133,0.417 -0.218,0.714 -0.084,0.297 -0.19,0.641 -0.291,1.013 -0.074,0.274 -0.152,0.563 -0.231,0.853 -0.217,0.008 -0.425,0.016 -0.607,0.023 -0.263,0.012 -0.483,0.022 -0.637,0.029 -0.154,0.009 -0.242,0.014 -0.242,0.014 0,0 0.088,0.006 0.242,0.017 0.154,0.007 0.374,0.024 0.638,0.03 0.172,0.004 0.368,0.009 0.572,0.012 -0.017,0.063 -0.034,0.125 -0.051,0.189 -0.101,0.398 -0.201,0.797 -0.296,1.171 -0.014,0.054 -0.025,0.104 -0.038,0.157 -0.204,0.005 -0.419,0.011 -0.642,0.016 -0.431,0.012 -0.891,0.025 -1.351,0.037 -0.117,0.004 -0.233,0.007 -0.35,0.011 0.034,-0.171 0.068,-0.34 0.1,-0.503 0.06,-0.3 0.104,-0.582 0.148,-0.823 0.044,-0.24 0.07,-0.443 0.093,-0.584 0.02,-0.142 0.031,-0.223 0.031,-0.223 0,0 -0.022,0.079 -0.061,0.217 -0.036,0.138 -0.094,0.334 -0.151,0.572 -0.057,0.238 -0.131,0.514 -0.196,0.812 -0.039,0.173 -0.079,0.354 -0.119,0.537 -0.288,0.009 -0.573,0.018 -0.845,0.026 -0.279,0.009 -0.545,0.018 -0.793,0.026 0.004,-0.035 0.006,-0.055 0.006,-0.055 0,0 -0.005,0.02 -0.014,0.056 -0.131,0.004 -0.259,0.008 -0.377,0.012 -0.344,0.014 -0.633,0.025 -0.834,0.033 -0.201,0.01 -0.316,0.016 -0.316,0.016 0,0 0.115,0.005 0.316,0.015 0.202,0.007 0.489,0.022 0.835,0.026 0.107,0.002 0.229,0.004 0.347,0.006 -0.003,0.012 -0.005,0.022 -0.009,0.035 -0.031,0.126 -0.076,0.308 -0.13,0.525 -0.052,0.216 -0.114,0.47 -0.179,0.741 -0.011,0.042 -0.021,0.086 -0.032,0.129 -0.378,0.018 -0.754,0.036 -1.109,0.053 -0.429,0.02 -0.829,0.051 -1.172,0.071 -0.343,0.021 -0.628,0.048 -0.828,0.062 -0.2,0.018 -0.314,0.028 -0.314,0.028 0,0 0.115,0.002 0.315,0.003 0.201,-10e-4 0.487,0.004 0.831,-0.003 0.248,-0.005 0.533,-0.009 0.83,-0.015 -0.011,0.027 -0.024,0.062 -0.042,0.107 -0.035,0.1 -0.092,0.241 -0.149,0.413 -0.056,0.172 -0.129,0.371 -0.193,0.588 -0.066,0.216 -0.136,0.447 -0.206,0.679 -0.062,0.233 -0.125,0.466 -0.184,0.684 -0.06,0.219 -0.103,0.426 -0.147,0.602 -0.04,0.166 -0.066,0.306 -0.088,0.408 -1.251,0.869 -2.492,1.752 -3.72,2.657 2.572,-1.4 5.094,-2.882 7.596,-4.392 1.257,-0.747 2.494,-1.525 3.741,-2.287 l 3.711,-2.333 3.683,-2.377 c 1.218,-0.807 2.445,-1.6 3.654,-2.422 2.427,-1.63 4.836,-3.287 7.194,-5.025 M 44.57,-14.877 c -0.822,0.524 -1.064,1.614 -0.541,2.436 0.524,0.822 1.614,1.064 2.436,0.54 0.822,-0.523 1.064,-1.613 0.54,-2.435 -0.523,-0.822 -1.614,-1.064 -2.435,-0.541 m 27.804,-16.945 c 0.523,0.821 1.613,1.063 2.435,0.54 0.822,-0.523 1.064,-1.614 0.541,-2.435 -0.524,-0.822 -1.614,-1.064 -2.436,-0.541 -0.822,0.523 -1.064,1.614 -0.54,2.436 m 2.683,-7.93 c 0.728,-0.047 1.562,0.179 2.353,0.594 0.39,0.221 0.77,0.491 1.119,0.811 0.342,0.327 0.655,0.695 0.925,1.092 0.273,0.395 0.506,0.818 0.689,1.254 0.172,0.441 0.294,0.892 0.36,1.336 0.11,0.887 0.031,1.749 -0.267,2.415 -0.284,0.667 -0.657,1.176 -0.966,1.484 -0.144,0.166 -0.282,0.271 -0.366,0.355 -0.087,0.081 -0.134,0.124 -0.134,0.124 0,0 0.053,-0.034 0.153,-0.098 0.097,-0.068 0.256,-0.149 0.43,-0.289 0.348,-0.274 0.842,-0.72 1.209,-1.424 0.372,-0.695 0.591,-1.639 0.492,-2.633 -0.058,-0.494 -0.178,-0.995 -0.354,-1.486 -0.187,-0.485 -0.429,-0.957 -0.718,-1.401 -0.31,-0.429 -0.665,-0.824 -1.052,-1.172 -0.394,-0.342 -0.822,-0.629 -1.263,-0.861 -0.896,-0.447 -1.859,-0.568 -2.639,-0.46 -0.788,0.097 -1.377,0.407 -1.757,0.634 -0.192,0.115 -0.324,0.234 -0.422,0.301 -0.095,0.071 -0.146,0.109 -0.146,0.109 0,0 0.057,-0.028 0.164,-0.081 0.108,-0.049 0.256,-0.14 0.461,-0.218 0.398,-0.179 1.005,-0.352 1.729,-0.386 m -32.442,22.603 c 0,0 0.478,-0.125 1.314,-0.342 0.415,-0.121 0.919,-0.268 1.497,-0.436 0.575,-0.18 1.224,-0.384 1.923,-0.633 1.394,-0.504 3.018,-1.115 4.698,-1.913 0.422,-0.195 0.839,-0.418 1.267,-0.63 0.214,-0.108 0.429,-0.217 0.645,-0.326 0.211,-0.117 0.424,-0.235 0.638,-0.353 0.425,-0.24 0.859,-0.473 1.285,-0.723 0.421,-0.26 0.843,-0.521 1.266,-0.782 1.651,-1.103 3.254,-2.287 4.625,-3.551 1.404,-1.227 2.538,-2.557 3.481,-3.704 0.247,-0.278 0.445,-0.576 0.642,-0.852 0.194,-0.278 0.378,-0.541 0.551,-0.789 0.359,-0.485 0.607,-0.951 0.831,-1.321 0.431,-0.749 0.677,-1.177 0.677,-1.177 0,0 -0.284,0.404 -0.781,1.11 -0.245,0.354 -0.528,0.793 -0.921,1.248 -0.188,0.233 -0.388,0.48 -0.599,0.741 -0.211,0.261 -0.421,0.544 -0.677,0.81 -0.974,1.102 -2.174,2.329 -3.572,3.517 -1.367,1.225 -2.963,2.368 -4.605,3.43 -0.413,0.263 -0.825,0.527 -1.236,0.789 -0.417,0.253 -0.842,0.489 -1.259,0.732 -0.209,0.12 -0.417,0.239 -0.625,0.358 -0.212,0.111 -0.422,0.221 -0.632,0.331 -0.42,0.216 -0.829,0.443 -1.244,0.642 -1.651,0.808 -3.215,1.525 -4.584,2.076 -0.686,0.272 -1.315,0.521 -1.872,0.743 -0.562,0.21 -1.05,0.399 -1.457,0.544 -0.812,0.293 -1.276,0.461 -1.276,0.461 m -1.111,11.291 2.39,-1.522 c 0,0 -1.559,-0.045 -3.802,-2.002 0.241,-0.78 0.617,-1.542 1.136,-2.232 -0.65,0.447 -1.243,1.009 -1.747,1.666 -0.215,-0.211 -0.436,-0.441 -0.661,-0.688 0.115,-0.596 0.357,-1.2 0.728,-1.752 -0.48,0.266 -0.931,0.625 -1.326,1.06 -0.218,-0.263 -0.438,-0.543 -0.662,-0.843 0.105,-0.588 0.332,-1.183 0.691,-1.729 -0.44,0.256 -0.853,0.592 -1.216,0.997 -0.297,-0.429 -0.597,-0.888 -0.901,-1.387 -0.089,1.452 1.762,7.244 5.37,8.432 M 0.534,0.801 c -12.181,8.498 -27.474,22.3 -31.942,40.153 l 68.81,-43.819 c -0.066,-0.635 -0.092,-2.048 0.713,-3.294 -1.18,-1.436 -2.228,-3.509 -2.846,-5.432 -0.379,0.092 -0.81,0.168 -1.288,0.208 -1.689,0.141 -4.315,-0.154 -7.331,-2.319 -1.833,0.759 -13.633,5.793 -26.116,14.503" /></g><g
           transform="translate(428.1313,390.7783)"
           id="g136"><path
             id="path138"
             style="fill:#322f30;fill-opacity:1;fill-rule:nonzero;stroke:none"
             d="m 0,0 -3.336,2.384 c 0.377,0.164 0.778,0.351 1.18,0.556 L 2.102,0.464 -1.394,3.353 c 0.364,0.21 0.718,0.435 1.043,0.674 1.647,-0.87 3.277,-1.778 4.887,-2.728 -1.39,1.114 -2.807,2.196 -4.25,3.25 0.393,0.364 0.7,0.75 0.874,1.154 L 6.849,2.394 1.32,6.519 C 1.29,7.03 1.016,7.56 0.405,8.098 c 0,0 -0.625,0.435 -1.732,1.194 0.169,-0.704 0.328,-1.409 0.472,-2.114 -0.866,1.253 -1.772,2.468 -2.711,3.643 -0.694,0.472 -1.464,0.994 -2.299,1.557 0.318,-1.064 0.676,-2.121 1.079,-3.169 -1.102,1.421 -2.122,2.926 -3.057,4.498 -0.645,0.431 -1.316,0.879 -2.01,1.34 l 1.059,-3.059 -3.182,4.464 c -0.981,0.647 -1.995,1.312 -3.035,1.989 l 1.435,-3.631 -3.721,5.112 c -0.875,0.564 -1.763,1.133 -2.657,1.702 l 1.198,-3.146 -3.361,4.513 c -1.009,0.634 -2.023,1.265 -3.032,1.887 0.412,-1.081 0.804,-2.167 1.176,-3.256 -1.104,1.586 -2.252,3.13 -3.438,4.637 -1.04,0.629 -2.069,1.244 -3.081,1.838 0.391,-1.141 0.805,-2.277 1.249,-3.406 -1.194,1.508 -2.338,3.068 -3.434,4.672 -0.664,0.38 -1.316,0.747 -1.956,1.102 0.398,-1.094 0.823,-2.183 1.28,-3.263 -1.212,1.427 -2.37,2.915 -3.475,4.453 -2.863,1.517 -5.354,2.679 -7.204,3.278 0.597,-1.46 1.407,-2.866 2.342,-4.195 1.398,-1.993 3.05,-3.839 4.707,-5.67 -1.88,1.601 -3.759,3.216 -5.457,5.067 -1.413,1.542 -2.701,3.277 -3.636,5.244 -0.654,0.035 -1.095,-0.114 -1.283,-0.477 -3.332,4.024 -5.863,12.29 -5.863,12.29 L 10.219,6.791 c 0,0 0.295,-1.328 1.531,-2.971 0,0 -1.594,-1.457 -2.468,-4.322 0,0 -3.671,1.102 -7.823,-1.388 -1.925,0.561 -6.924,3.459 -6.924,3.459 0,0 0.525,0.167 1.279,0.464 z" /></g><g
           transform="translate(401.9288,404.4995)"
           id="g140"><path
             id="path142"
             style="fill:#322f30;fill-opacity:1;fill-rule:nonzero;stroke:none"
             d="m 0,0 c -0.857,0.589 -1.69,1.214 -2.536,1.821 -3.334,2.491 -6.54,5.169 -9.485,8.118 -2.95,2.937 -5.642,6.153 -7.857,9.667 0.659,-0.804 1.309,-1.611 1.948,-2.423 0.663,-0.794 1.375,-1.547 2.058,-2.321 0.176,-0.189 0.336,-0.392 0.519,-0.575 l 0.542,-0.553 1.084,-1.106 c 0.707,-0.752 1.478,-1.441 2.226,-2.152 0.378,-0.35 0.745,-0.713 1.133,-1.053 L -9.203,8.404 -8.04,7.384 C -7.647,7.05 -7.241,6.731 -6.842,6.404 -6.039,5.756 -5.258,5.081 -4.429,4.465 L -3.202,3.52 -2.589,3.048 -1.963,2.593 C -1.127,1.987 -0.306,1.36 0.541,0.769 l 2.546,-1.767 2.575,-1.727 2.604,-1.687 c 3.492,-2.221 7.041,-4.362 10.578,-6.534 -0.931,0.458 -1.86,0.921 -2.779,1.401 -0.924,0.473 -1.843,0.955 -2.761,1.439 -0.918,0.485 -1.82,0.999 -2.731,1.498 -0.909,0.503 -1.799,1.038 -2.7,1.556 -0.895,0.527 -1.78,1.072 -2.665,1.617 L 2.58,-1.755 C 1.71,-1.185 0.861,-0.584 0,0" /></g></g></g><g
       transform="translate(373.8148,436.9758)"
       id="g144"><path
         id="path146"
         style="fill:#ffffff;fill-opacity:1;fill-rule:nonzero;stroke:none"
         d="M 0,0 8.301,-4.799 0.441,0.693 Z" /></g><g
       transform="translate(374.8112,434.7188)"
       id="g148"><path
         id="path150"
         style="fill:#ffffff;fill-opacity:1;fill-rule:nonzero;stroke:none"
         d="M 0,0 8.301,-4.799 0.441,0.693 Z" /></g><g
       transform="translate(440.352,394.7927)"
       id="g152"><path
         id="path154"
         style="fill:#ffffff;fill-opacity:1;fill-rule:nonzero;stroke:none"
         d="M 0,0 -36.085,22.656 -0.294,-0.462 Z" /></g><g
       transform="translate(439.7218,393.4634)"
       id="g156"><path
         id="path158"
         style="fill:#ffffff;fill-opacity:1;fill-rule:nonzero;stroke:none"
         d="m 0,0 -6.919,4.082 6.625,-4.544 z" /></g><g
       id="g160"><g
         clip-path="url(#clipPath166)"
         id="g162"><g
           transform="translate(394.7996,382.0593)"
           id="g168"><path
             id="path170"
             style="fill:#ffffff;fill-opacity:1;fill-rule:nonzero;stroke:none"
             d="m 0,0 c 0.755,-0.436 2.759,-1.449 2.759,-1.449 m 4.054,-2.197 c 0,0 2.828,-1.258 3.06,-1.551 0.335,-0.421 -0.366,-2.378 -0.808,-2.77 -0.442,-0.392 -2.93,0.142 -3.893,-1.028 0,0 -5.794,2.81 -5.983,3.853 -0.188,1.044 -1.433,2.626 -1.105,3.443 C -1.588,-0.881 -0.755,0.436 0,0" /></g><g
           transform="translate(399.8499,372.4873)"
           id="g172"><path
             id="path174"
             style="fill:#ffffff;fill-opacity:1;fill-rule:nonzero;stroke:none"
             d="m 0,0 c -1.204,-1.462 -6.468,-15.544 -11.204,-22.968 -4.736,-7.425 -7.761,-9.59 -9.271,-10.337" /></g><g
           transform="translate(397.2998,373.5543)"
           id="g176" /><g
           transform="translate(385.7975,359.8146)"
           id="g178"><path
             id="path180"
             style="fill:#ffffff;fill-opacity:1;fill-rule:nonzero;stroke:none"
             d="M 0,0 C -0.947,-0.542 -1.919,-1.037 -2.877,-1.557 -3.852,-2.046 -4.814,-2.56 -5.8,-3.026 c 0.946,0.543 1.918,1.037 2.877,1.557 C -1.948,-0.98 -0.987,-0.466 0,0" /></g><g
           transform="translate(383.0298,356.5913)"
           id="g182"><path
             id="path184"
             style="fill:#ffffff;fill-opacity:1;fill-rule:nonzero;stroke:none"
             d="M 0,0 C -0.263,0.934 -0.474,1.879 -0.713,2.819 -0.918,3.766 -1.15,4.707 -1.33,5.66 -1.066,4.727 -0.855,3.781 -0.616,2.841 -0.412,1.894 -0.18,0.953 0,0" /></g><g
           transform="translate(381.0239,354.608)"
           id="g186"><path
             id="path188"
             style="fill:#ffffff;fill-opacity:1;fill-rule:nonzero;stroke:none"
             d="M 0,0 C -0.268,1.152 -0.484,2.314 -0.728,3.47 -0.937,4.634 -1.174,5.791 -1.358,6.96 -1.09,5.808 -0.874,4.646 -0.63,3.489 -0.421,2.326 -0.184,1.168 0,0" /></g><g
           transform="translate(378.1362,353.1382)"
           id="g190"><path
             id="path192"
             style="fill:#ffffff;fill-opacity:1;fill-rule:nonzero;stroke:none"
             d="M 0,0 C 0.718,0.381 1.458,0.713 2.186,1.071 2.929,1.397 3.66,1.749 4.413,2.052 3.696,1.671 2.956,1.339 2.228,0.981 1.485,0.655 0.754,0.303 0,0" /></g><g
           transform="translate(379.7634,350.5089)"
           id="g194"><path
             id="path196"
             style="fill:#ffffff;fill-opacity:1;fill-rule:nonzero;stroke:none"
             d="M 0,0 C -0.221,0.981 -0.389,1.971 -0.585,2.956 -0.746,3.948 -0.936,4.934 -1.072,5.93 -0.851,4.949 -0.683,3.959 -0.487,2.974 -0.326,1.982 -0.136,0.996 0,0" /></g><g
           transform="translate(376.5767,349.5599)"
           id="g198"><path
             id="path200"
             style="fill:#ffffff;fill-opacity:1;fill-rule:nonzero;stroke:none"
             d="M 0,0 C 0.266,0.077 5.239,2.472 5.239,2.472" /></g><g
           transform="translate(376.5768,349.5598)"
           id="g202"><path
             id="path204"
             style="fill:#ffffff;fill-opacity:1;fill-rule:nonzero;stroke:none"
             d="M 0,0 C 0.438,0.202 0.866,0.426 1.304,0.63 L 2.605,1.266 C 3.484,1.665 4.35,2.092 5.239,2.472 4.387,2.015 3.512,1.607 2.648,1.176 1.767,0.781 0.904,0.343 0,0" /></g><g
           transform="translate(379.2179,345.7241)"
           id="g206"><path
             id="path208"
             style="fill:#ffffff;fill-opacity:1;fill-rule:nonzero;stroke:none"
             d="M 0,0 C -0.349,1.308 -0.646,2.628 -0.971,3.942 -1.261,5.263 -1.579,6.578 -1.845,7.906 -1.495,6.598 -1.198,5.278 -0.874,3.964 -0.584,2.642 -0.266,1.327 0,0" /></g><g
           transform="translate(376.102,346.1461)"
           id="g210"><path
             id="path212"
             style="fill:#ffffff;fill-opacity:1;fill-rule:nonzero;stroke:none"
             d="M 0,0 C 0.934,0.546 1.893,1.044 2.839,1.568 3.801,2.061 4.75,2.579 5.724,3.049 4.79,2.503 3.831,2.004 2.886,1.48 1.923,0.988 0.974,0.47 0,0" /></g><g
           transform="translate(198.4731,354.4341)"
           id="g214"><path
             id="path216"
             style="fill:#322f30;fill-opacity:1;fill-rule:nonzero;stroke:none"
             d="m 0,0 c -5.252,-2.876 -11.205,-6.139 -13.136,-11.951 -1.922,-5.784 0.888,-11.941 3.367,-17.373 1.65,-3.615 3.52,-7.713 3.041,-9.883 -0.466,-2.121 -3.857,-5.028 -6.848,-7.594 -0.351,-0.301 -0.705,-0.606 -1.06,-0.913 0.394,-0.705 4.069,-7.838 4.869,-9.155 0.91,0.832 1.861,1.655 2.752,2.419 4.394,3.769 8.938,7.665 10.13,13.075 1.203,5.459 -1.297,10.938 -3.716,16.235 -1.623,3.558 -3.644,7.986 -2.971,10.01 0.683,2.057 4.971,4.405 8.416,6.293 5.092,2.793 10.359,5.678 12.646,10.751 0,0 -7.606,5.989 -9.189,4.141 C 4.781,3.509 3.505,2.233 0,0" /></g><g
           transform="translate(442.6345,82.9937)"
           id="g218"><path
             id="path220"
             style="fill:none;stroke:#322f30;stroke-width:3.125;stroke-linecap:butt;stroke-linejoin:miter;stroke-miterlimit:4;stroke-dasharray:none;stroke-opacity:1"
             d="m 0,0 c 116.295,0 210.571,92.45 210.571,206.494 0,114.043 -94.276,206.494 -210.571,206.494 -116.295,0 -210.571,-92.451 -210.571,-206.494 C -210.571,92.45 -116.295,0 0,0 Z" /></g><g
           transform="translate(650.0283,241.7881)"
           id="g222"><path
             id="path224"
             style="fill:#ffffff;fill-opacity:1;fill-rule:nonzero;stroke:none"
             d="M 0,0 C 7.828,0 14.173,19.569 14.173,43.709 14.173,67.848 7.828,87.417 0,87.417 -7.828,87.417 -14.173,67.848 -14.173,43.709 -14.173,19.569 -7.828,0 0,0" /></g><g
           transform="translate(264.3064,172.2578)"
           id="g226"><path
             id="path228"
             style="fill:#ffffff;fill-opacity:1;fill-rule:nonzero;stroke:none"
             d="M 0,0 C 13.988,3.748 18.559,32.044 10.211,63.2 1.863,94.355 -16.244,116.574 -30.232,112.826 -44.22,109.078 -48.791,80.782 -40.443,49.627 -32.095,18.471 -13.988,-3.748 0,0" /></g><g
           transform="translate(188.9995,246.9672)"
           id="g230"><path
             id="path232"
             style="fill:#b22e1f;fill-opacity:1;fill-rule:nonzero;stroke:none"
             d="m 0,0 c 0.852,-5.089 -5.772,-16.659 -18.591,-27.206 -0.077,0.463 -0.309,0.9 -0.412,1.517 -1.213,7.247 10.495,26.326 16.971,27.41 C -1.261,1.85 -0.206,1.234 0,0 m -21.108,-29.212 c -7.296,-5.659 -16.289,-10.652 -26.953,-14.18 4.943,27.299 33.734,59.858 51.825,64.471 C 1.404,14.343 -4.042,9.944 -7.69,8.066 L -7.227,7.192 C -5.48,8.118 2.433,12.93 5.769,21.414 15.664,22.911 20.32,16.874 21.532,9.627 24.216,-6.41 4.389,-30.018 -9.951,-32.418 c -4.164,-0.696 -7.095,0.715 -8.485,4.287 13.255,10.778 20.29,22.735 19.335,28.44 -0.283,1.696 -1.852,2.543 -3.085,2.337 -7.094,-1.187 -21.991,-17.312 -20.133,-28.415 0.207,-1.233 0.567,-2.441 1.211,-3.443 m 0.591,-0.694 c 2.418,-3.082 6.711,-4.108 10.721,-3.437 14.803,2.477 35.041,26.471 32.254,43.125 -1.316,7.864 -5.998,14.055 -16.227,12.661 1.078,3.033 1.435,6.58 0.79,10.435 -2.606,15.574 -22.117,18.492 -37.228,15.963 -28.681,-4.8 -77.933,-35.393 -71.508,-73.788 2.942,-17.579 21.788,-25.997 39.212,-23.081 2.776,0.465 5.371,1.057 7.967,1.65 -0.409,-3.239 -0.356,-6.4 0.16,-9.484 2.116,-12.644 12.069,-21.916 28.106,-19.233 2.467,0.413 4.908,0.98 7.298,1.856 -3.105,-7.97 -6.311,-17.225 -9.723,-28.1 l 0.977,-0.153 c 3.514,11.208 6.695,20.618 9.928,28.768 19.658,7.569 36.531,27.988 34.854,38.011 -0.413,2.467 -2.137,5.19 -5.838,4.571 -7.864,-1.316 -17.855,-11.706 -29.762,-41.915 -2.698,-0.927 -5.268,-1.674 -7.889,-2.112 -12.644,-2.116 -20.078,6.309 -21.936,17.411 -0.645,3.855 -0.545,7.994 0.172,12.235 10.819,3.554 20.068,8.906 27.672,14.617 m -34.02,-15.521 c -2.57,-0.747 -5.345,-1.211 -8.121,-1.676 -17.116,-2.864 -35.293,5.349 -38.131,22.311 -6.271,37.47 42.056,67.908 70.737,72.708 14.34,2.399 32.309,-0.776 34.76,-15.425 0.671,-4.009 0.288,-7.402 -0.636,-10.41 -19.711,-4.408 -54.773,-38.333 -58.609,-67.508 m 37.338,-26.089 c 11.367,28.692 20.87,39.159 28.58,40.449 3.238,0.542 4.422,-1.796 4.757,-3.801 1.549,-9.252 -14.322,-29.028 -33.337,-36.648 m 54.505,50.335 c 8.366,20.105 15.524,40.801 18.608,41.317 0.925,0.155 1.465,-0.231 1.697,-1.618 1.497,-8.944 -11.007,-28.949 -20.305,-39.699 m 11.461,3.504 C 42.291,-18.761 35.77,-29.998 29.248,-40.283 l 7.032,16.711 c 8.887,9.413 23.985,31.913 22.256,42.245 -0.232,1.387 -0.927,2.698 -2.777,2.388 C 50.67,20.21 41.918,0.516 33.731,-16.865 26.005,-33.217 16.074,-57.23 15.641,-63.167 c 0,-0.646 0.309,-0.9 0.617,-0.848 0.309,0.052 0.437,0.232 0.437,0.232 1.721,2.031 6.548,10.131 10.269,18.204 6.959,10.517 15.328,25.867 21.65,26.925 1.079,0.18 1.748,-0.976 1.929,-2.055 0.98,-5.86 -16.102,-20.29 -14.167,-31.855 0.722,-4.318 2.857,-6.655 6.25,-6.087 5.242,0.877 11.402,14.272 16.1,23.142 l -0.874,0.488 c -3.851,-7.302 -10.601,-21.905 -15.381,-22.705 -1.08,-0.181 -1.98,0.461 -2.289,2.311 -1.11,6.631 14.146,23.451 12.314,34.399 -0.567,3.392 -2.803,3.493 -3.729,3.339 m 43.15,7.379 -2.776,-0.465 -6.931,-12.573 c 0.769,2.982 1.127,5.578 0.818,7.429 -0.284,1.696 -1.52,4.343 -3.678,3.981 -6.631,-1.109 -26.845,-22.404 -24.342,-37.362 0.697,-4.163 3.808,-6.654 7.201,-6.086 2.93,0.49 7.424,5.839 11.378,12.524 -0.385,-1.491 -0.461,-2.93 -0.306,-3.855 0.8,-4.78 3.731,-6.192 7.123,-5.624 5.397,0.903 14.2,20.288 15.484,23.039 l -0.874,0.488 c -3.901,-8.896 -11.064,-21.983 -14.765,-22.602 -1.233,-0.207 -1.928,1.104 -2.134,2.337 -0.207,1.234 0.332,2.751 0.871,4.267 z m -12.413,-2.553 c 1.234,0.207 2.289,-1.361 2.598,-3.211 0.465,-2.776 -0.535,-7.223 -2.408,-12.133 -1.899,-3.805 -3.542,-7.251 -4.774,-10.31 -4.338,-8.176 -9.628,-15.402 -12.866,-15.944 -1.234,-0.207 -2.211,0.898 -2.418,2.132 -1.625,9.714 16.784,38.95 19.868,39.466 m 17.707,-35.715 c -0.617,-0.103 -1.877,0.796 -2.058,1.875 -0.202,1.212 0.611,4.205 2.068,8.272 4.013,11.2 12.908,30.545 18.914,43.27 l 19.772,3.309 -0.154,0.925 -19.13,-3.202 5.527,11.546 -2.158,-0.361 L 113.397,5.344 100.595,3.201 C 96.74,2.556 91.908,3.016 91.908,3.016 l -1.027,-2.391 21.932,3.67 -15.284,-28.238 c -5.918,-11.463 -7.696,-15.584 -6.978,-19.872 0.567,-3.393 2.343,-6.424 6.815,-5.676 6.322,1.058 16.1,23.143 16.1,23.143 l -0.874,0.488 c -3.978,-9.384 -11.372,-22.035 -15.381,-22.706 m 22.051,2.739 c 9.56,1.6 18.85,22.811 19.184,23.659 l -0.874,0.488 c -0.796,-1.877 -9.83,-21.777 -18.465,-23.222 -2.313,-0.387 -3.625,0.82 -4.038,3.287 -0.593,3.547 1.253,9.563 4.205,15.605 1.26,0.052 2.057,0.027 2.211,0.053 6.784,1.135 17.521,11.809 16.024,20.752 -0.283,1.696 -1.723,2.724 -3.728,2.388 -4.78,-0.8 -26.613,-21.89 -24.136,-36.693 1.032,-6.168 5.762,-6.962 9.617,-6.317 m 0.5,20.691 c 5.057,10.516 12.786,21.162 14.636,21.471 1.234,0.207 2.031,-0.769 2.186,-1.695 1.368,-8.172 -8.778,-18.588 -15.254,-19.672 -0.463,-0.078 -1.08,-0.181 -1.568,-0.104 M 171.635,3.042 168.86,2.578 161.928,-9.995 c 0.769,2.982 1.127,5.578 0.818,7.428 -0.284,1.696 -1.519,4.343 -3.678,3.982 -6.631,-1.11 -26.845,-22.405 -24.342,-37.362 0.697,-4.164 3.809,-6.655 7.201,-6.087 2.93,0.49 7.424,5.839 11.378,12.525 -0.385,-1.491 -0.461,-2.931 -0.306,-3.856 0.8,-4.78 3.731,-6.192 7.123,-5.624 5.397,0.903 14.201,20.288 15.484,23.039 l -0.874,0.488 c -3.901,-8.895 -11.064,-21.983 -14.764,-22.602 -1.234,-0.207 -1.929,1.104 -2.135,2.337 -0.207,1.234 0.332,2.751 0.871,4.268 z M 159.223,0.489 c 1.233,0.207 2.288,-1.36 2.598,-3.211 0.464,-2.775 -0.535,-7.223 -2.408,-12.133 -1.9,-3.805 -3.543,-7.25 -4.774,-10.31 -4.339,-8.176 -9.629,-15.402 -12.867,-15.944 -1.234,-0.206 -2.211,0.898 -2.417,2.132 -1.626,9.714 16.784,38.95 19.868,39.466 m 32.966,-16.05 c -4.382,-8.851 -11.701,-19.069 -15.26,-19.665 -0.617,-0.103 -1.619,0.205 -1.826,1.438 -0.62,4.652 13.7,39.386 13.7,39.386 l -2.159,-0.361 c 0,0 -17.846,-26.922 -16.375,-35.712 0.568,-3.393 2.343,-6.424 6.815,-5.676 3.712,0.621 9.148,8.582 13.003,15.048 -0.76,-2.474 -1.115,-4.626 -0.851,-6.198 0.567,-3.393 2.343,-6.424 6.814,-5.676 6.323,1.058 16.101,23.143 16.101,23.143 l -0.874,0.488 c -3.978,-9.384 -11.372,-22.035 -15.381,-22.706 -0.617,-0.103 -1.62,0.205 -1.826,1.438 -0.62,4.652 13.699,39.386 13.699,39.386 L 205.61,8.41 c -5.335,-8.134 -9.02,-15.992 -13.421,-23.971 m 80.985,37.021 c -1.517,-0.412 -3.033,-0.824 -4.575,-1.082 -12.644,-2.116 -25.191,3.71 -27.642,18.359 -4.129,24.672 22.816,51.215 52.576,56.195 16.499,2.761 33.494,-5.016 39.287,-19.739 -29.323,-5.7 -56.785,-28.208 -59.646,-53.733 m 95.921,0.835 c 1.551,-13.056 -9.441,-26.943 -17.151,-28.233 -4.471,-0.748 -7.402,-0.288 -8.356,5.418 -1.574,9.406 9.522,20.774 21.703,22.812 2.468,0.413 3.29,0.234 3.804,0.003 m -95.15,-1.657 c 14.956,4.405 24.844,16.364 28.973,30.529 l -0.977,0.153 c -4.026,-13.83 -13.375,-25.223 -27.842,-29.705 3.145,24.78 30.015,47.03 59.03,52.678 0.592,-1.644 1.03,-3.315 1.314,-5.011 5.006,-29.915 -18.179,-66.608 -43.16,-70.788 -8.326,-1.393 -15.63,4.359 -16.972,12.378 -0.541,3.238 -0.621,6.554 -0.366,9.766 m 78.745,12.544 c 2.313,0.387 4.754,0.954 6.964,1.958 6.221,-1.178 8.331,-5.264 9.415,-11.74 -1.285,0.102 -2.545,0.05 -3.932,-0.183 -12.491,-2.09 -24.203,-13.561 -22.475,-23.892 1.136,-6.785 5.12,-6.911 9.437,-6.188 13.416,2.245 21.119,13.996 22.729,27.105 3.6,-2.568 6.944,-6.447 7.925,-12.306 2.038,-12.182 -8.416,-21.699 -18.103,-26.332 l 0.463,-0.873 c 9.995,4.684 20.707,14.561 18.565,27.36 -1.058,6.322 -4.119,10.407 -8.696,13.128 -1.035,9.972 -8.054,13.077 -14.018,14.616 8.814,4.169 16.416,12.733 14.765,22.602 -1.033,6.168 -4.608,10.484 -9.519,13.308 4.65,3.473 10.097,5.969 16.882,7.105 6.476,1.083 13.88,-1.482 14.912,-7.65 0.284,-1.696 -0.897,-4.113 -1.719,-4.885 l 0.72,-0.513 c 2.106,2.572 2.105,4.473 1.925,5.553 -1.187,7.093 -9.208,9.555 -15.993,8.42 -7.093,-1.187 -12.823,-3.89 -17.601,-7.543 -8.511,4.441 -20.489,4.973 -30.512,3.296 l -1.079,-0.181 c -5.896,15.341 -23.405,23.349 -40.367,20.51 -30.068,-5.032 -57.63,-31.678 -53.346,-57.275 2.554,-15.265 15.461,-21.348 28.722,-19.129 1.388,0.232 2.93,0.49 4.292,0.876 -0.255,-3.213 -0.202,-6.374 0.34,-9.612 1.445,-8.635 9.109,-14.645 18.052,-13.148 25.597,4.283 49.736,37.173 43.93,71.868 -0.284,1.696 -0.722,3.366 -1.314,5.011 l 0.925,0.155 c 10.486,1.754 21.127,0.682 27.993,-4.351 -10.609,-9.543 -19.39,-23.377 -26.216,-40.371 -6.671,-16.968 -11.39,-33.292 -29.17,-42.608 -8.97,-0.392 -16.244,0.452 -27.038,-1.354 -1.85,-0.31 -5.911,-1.624 -6.784,-3.038 -0.256,-0.36 -0.205,-0.668 -0.179,-0.822 0.594,-3.547 8.767,-3.13 14.78,-2.124 7.556,1.264 13.98,3.608 19.53,6.439 2.982,0.181 6.117,0.389 9.51,0.957 9.714,1.625 16.652,4.689 21.658,13.611 l -0.72,0.513 c -4.749,-8.562 -11.379,-11.573 -21.093,-13.199 -2.622,-0.439 -5.115,-0.697 -7.453,-0.93 16.34,9.392 26.662,25.386 33,41.506 6.21,15.939 10.158,31.184 21.049,40.932 3.318,-2.774 5.711,-6.653 6.562,-11.742 1.626,-9.714 -2.327,-17.351 -10.935,-21.803 -1.953,0.307 -4.009,0.28 -6.014,-0.055 -0.925,-0.155 -5.191,-1.186 -5.011,-2.265 0.181,-1.08 1.621,-1.156 4.242,-0.717 m -47.134,-47.041 c -4.984,-2.42 -10.715,-4.171 -17.345,-5.281 -6.631,-1.109 -13.288,-1.114 -13.701,1.353 l 0.129,0.18 c 0.642,0.9 3.751,2.213 6.064,2.6 9.714,1.626 16.654,0.885 24.853,1.148 m 86.543,34.138 c 4.467,8.356 8.343,16.455 9.935,19.258 1.107,-2.827 2.059,-4.728 2.111,-5.036 1.703,-10.178 -11.71,-16.227 -9.93,-26.866 0.929,-5.551 4.143,-6.757 6.456,-6.37 6.168,1.032 15.972,22.963 16.1,23.143 l -0.72,0.513 C 411.534,14.971 404.217,2.809 400.516,2.19 c -0.925,-0.155 -2.185,0.744 -2.392,1.977 -1.058,6.323 9.654,16.199 7.874,26.839 -0.697,4.164 -2.369,6.579 -3.374,9.739 1.232,2.109 4.853,7.946 4.569,9.642 -0.103,0.617 -0.515,1.182 -1.286,1.053 -3.701,-0.62 -5.42,-4.553 -4.827,-8.1 0.155,-0.925 0.31,-1.85 0.593,-2.595 -1.104,-1.929 -5.493,-10.748 -10.448,-19.978 z M 418.093,5.131 c -0.617,-0.103 -1.619,0.205 -1.826,1.438 -0.62,4.652 13.699,39.386 13.699,39.386 l -2.158,-0.361 c 0,0 -17.846,-26.921 -16.375,-35.712 0.568,-3.392 2.343,-6.424 6.815,-5.676 6.322,1.058 16.1,23.143 16.1,23.143 l -0.874,0.488 C 429.496,18.453 422.102,5.802 418.093,5.131 m 24.04,66.637 c -0.207,1.234 -0.568,2.442 -2.11,2.184 -2.621,-0.439 -4.727,-3.011 -4.262,-5.786 0.206,-1.234 1.338,-2.313 2.571,-2.106 2.622,0.439 4.111,3.851 3.801,5.708 m 25.406,-19.209 -2.776,-0.464 -6.931,-12.573 c 0.769,2.982 1.127,5.578 0.818,7.428 -0.284,1.697 -1.52,4.343 -3.678,3.982 -6.631,-1.11 -26.845,-22.405 -24.342,-37.362 0.697,-4.163 3.808,-6.655 7.201,-6.087 2.93,0.49 7.424,5.84 11.378,12.525 -0.385,-1.491 -0.461,-2.931 -0.306,-3.856 0.8,-4.78 3.731,-6.192 7.123,-5.624 5.397,0.903 14.2,20.289 15.484,23.04 l -0.874,0.488 c -3.901,-8.896 -11.064,-21.983 -14.765,-22.603 -1.233,-0.206 -1.928,1.104 -2.134,2.338 -0.207,1.233 0.332,2.75 0.871,4.267 z m -12.413,-2.552 c 1.234,0.206 2.289,-1.361 2.598,-3.211 0.465,-2.776 -0.535,-7.223 -2.408,-12.134 -1.899,-3.805 -3.542,-7.25 -4.773,-10.31 -4.339,-8.176 -9.629,-15.402 -12.867,-15.944 -1.234,-0.206 -2.211,0.899 -2.417,2.132 -1.626,9.715 16.784,38.951 19.867,39.467 m 47.545,7.639 c 1.233,0.206 2.263,-1.207 2.443,-2.286 0.981,-5.86 -16.102,-20.29 -14.167,-31.855 0.723,-4.317 2.858,-6.655 6.25,-6.087 5.243,0.877 11.403,14.272 16.1,23.143 l -0.874,0.487 c -3.85,-7.302 -10.601,-21.905 -15.381,-22.705 -1.079,-0.181 -1.979,0.461 -2.289,2.312 -1.109,6.63 14.147,23.45 12.315,34.398 -0.568,3.392 -2.239,3.905 -4.552,3.518 -5.243,-0.877 -12.099,-11.06 -18.338,-21.14 0,0 5.417,10.259 4.591,15.194 -0.258,1.542 -1.673,3.366 -3.677,3.03 C 479.232,54.675 474.537,42 470.635,34.056 l 0.874,-0.488 c 4.056,7.97 8.495,20.285 13.737,21.162 0.617,0.103 1.029,-0.462 1.209,-1.541 0.336,-2.005 -5.723,-12.213 -11.858,-24.811 -2.105,-4.474 -5.209,-13.395 -4.976,-14.782 0.103,-0.617 0.334,-1.054 0.797,-0.977 2.313,0.387 8.91,13.063 11.683,18.283 1.694,3.136 13.168,25.505 20.57,26.744 m 61.861,46.177 -2.776,-0.465 -24.975,-50.625 c 0.769,2.982 1.127,5.579 0.817,7.429 -0.283,1.696 -1.519,4.343 -3.678,3.981 -6.63,-1.109 -26.844,-22.404 -24.341,-37.362 0.697,-4.163 3.808,-6.654 7.201,-6.086 2.929,0.49 7.424,5.839 11.378,12.524 -0.385,-1.491 -0.461,-2.93 -0.306,-3.855 0.8,-4.78 3.731,-6.192 7.123,-5.624 5.397,0.903 14.2,20.288 15.484,23.039 l -0.875,0.488 c -3.901,-8.896 -11.063,-21.983 -14.764,-22.602 -1.233,-0.207 -1.928,1.104 -2.135,2.337 -0.206,1.234 0.307,2.905 0.871,4.268 z M 534.075,63.218 c 1.234,0.207 2.289,-1.361 2.598,-3.211 0.465,-2.775 -0.535,-7.223 -2.408,-12.133 -1.899,-3.805 -3.542,-7.251 -4.774,-10.31 -4.338,-8.176 -9.628,-15.402 -12.866,-15.944 -1.234,-0.207 -2.211,0.898 -2.418,2.132 -1.625,9.714 16.784,38.95 19.868,39.466" /></g></g></g></g></svg>