<?xml version="1.0" standalone="no"?>
<!DOCTYPE svg PUBLIC "-//W3C//DTD SVG 20010904//EN"
 "http://www.w3.org/TR/2001/REC-SVG-20010904/DTD/svg10.dtd">
<svg version="1.0" xmlns="http://www.w3.org/2000/svg"
 width="1123.000000pt" height="1123.000000pt" viewBox="0 0 1123.000000 1123.000000"
 preserveAspectRatio="xMidYMid meet">
<metadata>
Created by potrace 1.14, written by Peter Selinger 2001-2017
</metadata>
<g transform="translate(0.000000,1123.000000) scale(0.100000,-0.100000)"
fill="#000000" stroke="none">
<path d="M5920 8858 c-25 -4 -46 -12 -48 -18 -2 -5 -10 -10 -18 -10 -8 0 -31
-15 -51 -32 -119 -107 -130 -115 -170 -124 -14 -2 -88 34 -132 65 -16 12 -55
33 -86 46 -123 55 -192 24 -320 -140 -42 -54 -77 -85 -96 -85 -16 0 -68 15
-104 30 -128 54 -199 62 -269 29 -48 -22 -78 -60 -136 -171 -19 -37 -45 -79
-58 -93 -21 -25 -26 -26 -85 -19 -34 4 -72 8 -84 8 -13 1 -23 4 -23 7 0 6 -1
6 -75 9 -77 2 -127 -16 -163 -59 -19 -23 -62 -116 -68 -146 -8 -48 -44 -132
-63 -149 -15 -13 -45 -18 -143 -21 -138 -5 -186 -19 -230 -66 -32 -34 -55
-108 -63 -194 -6 -74 -15 -125 -26 -146 -8 -16 -83 -43 -144 -53 -58 -10 -127
-35 -164 -59 -71 -47 -85 -113 -67 -316 5 -56 3 -80 -8 -96 -8 -11 -58 -41
-112 -65 -55 -25 -100 -48 -102 -52 -2 -5 -8 -8 -13 -8 -13 0 -51 -39 -73 -74
-26 -41 -22 -131 9 -222 14 -40 28 -93 31 -117 l6 -45 -57 -45 c-31 -25 -69
-51 -84 -58 -52 -27 -126 -88 -145 -120 -13 -22 -19 -50 -18 -83 1 -64 2 -69
40 -156 66 -151 65 -160 -13 -233 -41 -37 -43 -41 -30 -61 23 -31 19 -44 -27
-86 -44 -41 -37 -40 -151 -25 -16 2 -27 -1 -25 -7 2 -5 27 -11 56 -13 59 -4
72 -10 72 -31 0 -8 5 -14 10 -14 6 0 10 -5 10 -10 0 -6 15 -28 34 -48 94 -102
125 -143 136 -182 12 -42 -4 -67 -48 -75 -19 -3 -52 -17 -73 -31 -21 -13 -41
-24 -44 -24 -22 0 -202 -148 -281 -230 -85 -89 -110 -117 -149 -176 -22 -32
-43 -61 -46 -64 -3 -3 -25 -41 -48 -84 -44 -83 -91 -212 -91 -252 0 -26 -17
-33 -122 -48 -10 -1 -21 -5 -24 -9 -12 -11 27 -8 84 7 l52 14 1 -36 c1 -52 6
-117 8 -117 2 0 4 -7 6 -15 18 -82 101 -175 180 -203 41 -14 145 -25 165 -17
3 1 19 3 35 5 17 2 43 7 58 11 l28 6 -15 -33 c-31 -71 -87 -232 -81 -237 3 -3
6 -3 8 -1 3 5 47 129 50 144 2 6 14 39 27 75 l24 65 89 45 c49 25 92 51 94 58
3 6 9 12 14 12 18 0 128 103 172 162 l28 37 36 -40 c28 -31 34 -45 30 -66 -3
-16 -8 -43 -12 -61 -9 -45 5 -40 38 14 l27 45 43 -26 c23 -14 60 -34 82 -45
60 -28 120 -90 88 -90 -5 0 -9 -37 -10 -83 -1 -45 -4 -111 -6 -146 -5 -76 8
-126 42 -164 36 -39 121 -77 206 -91 30 -5 75 -18 107 -31 23 -9 37 -50 42
-130 16 -234 67 -293 260 -300 50 -2 93 -4 96 -6 3 -1 9 -1 14 0 4 1 23 -3 41
-9 28 -9 40 -21 50 -50 1 -3 4 -12 8 -20 3 -8 9 -28 13 -45 4 -16 8 -32 9 -35
1 -3 8 -26 15 -52 8 -27 18 -48 23 -48 4 0 6 -4 3 -8 -10 -17 55 -81 99 -98
44 -16 129 -16 207 1 15 3 50 7 78 9 46 2 53 0 76 -27 13 -16 36 -54 51 -85
29 -61 66 -123 97 -160 41 -48 142 -50 268 -6 69 24 85 28 134 38 23 5 83 -51
139 -129 67 -93 131 -130 211 -121 60 6 84 14 84 29 0 6 3 8 6 4 3 -3 29 8 57
25 98 58 118 68 135 68 28 0 76 -31 142 -92 148 -137 251 -132 408 19 58 56
107 79 130 60 6 -5 12 -7 12 -3 0 3 37 -17 83 -45 45 -28 87 -52 92 -54 6 -1
23 -7 40 -14 37 -15 101 -12 139 7 33 16 97 78 141 137 17 22 43 52 59 68 35
34 50 32 191 -18 106 -39 152 -44 208 -26 36 12 100 74 117 114 25 56 83 154
101 169 22 18 88 17 173 -3 26 -6 81 -9 121 -7 64 4 76 8 108 38 32 29 76 101
84 138 7 30 12 47 13 47 1 0 3 10 6 22 8 44 39 102 60 114 12 6 71 12 130 14
232 5 279 52 299 299 9 109 28 131 125 150 148 30 203 53 242 100 22 25 41 90
40 131 -1 52 -14 220 -17 223 -12 13 51 56 133 93 54 24 108 54 122 66 14 13
28 23 32 23 3 0 16 20 28 45 29 61 25 116 -19 260 -37 118 -30 133 87 213 134
90 176 173 142 277 -16 47 -78 155 -90 155 -10 0 -29 53 -26 72 1 7 23 48 48
91 41 70 46 75 52 53 9 -36 45 -66 78 -66 32 0 99 60 134 119 10 17 22 31 27
31 4 0 5 -5 2 -10 -10 -16 15 -79 35 -90 28 -15 65 -12 87 8 47 41 173 256
173 294 0 7 -21 -27 -46 -76 -53 -105 -115 -195 -146 -215 -19 -12 -23 -11
-34 3 -6 9 -10 27 -7 39 7 28 159 390 184 439 11 21 20 40 19 43 0 3 7 22 16
43 10 20 18 40 18 44 1 3 4 10 9 14 4 4 7 16 7 26 0 10 3 18 8 18 7 0 32 63
34 88 1 6 5 12 10 12 4 0 8 9 8 19 0 11 5 23 10 26 6 3 10 15 10 26 0 10 4 19
8 19 6 0 37 69 34 77 0 1 10 24 23 50 14 29 20 52 14 57 -12 13 -20 3 -49 -54
-12 -25 -27 -54 -33 -65 -41 -77 -157 -318 -157 -325 0 -6 -4 -10 -10 -10 -5
0 -10 -5 -10 -11 0 -11 -90 -199 -95 -199 -2 0 0 15 4 33 10 43 -5 94 -29 102
-10 3 -34 -2 -52 -11 -44 -22 -196 -178 -204 -208 -3 -14 -12 -27 -21 -30 -8
-3 -12 -9 -10 -14 3 -4 -1 -15 -8 -25 -12 -16 -16 -13 -49 41 -27 44 -34 67
-31 91 8 62 -31 105 -74 82 -11 -6 -22 -11 -24 -11 -9 0 14 85 33 127 11 24
20 49 20 57 0 8 3 16 8 18 4 2 20 29 35 61 20 40 34 57 48 57 17 0 24 16 20
43 0 4 2 7 7 7 12 0 7 63 -8 100 -15 38 -77 105 -125 136 -43 28 -65 45 -97
78 -32 35 -31 51 7 161 44 127 48 193 15 256 -21 38 -62 67 -169 119 -57 28
-111 58 -119 67 -18 17 -19 103 -3 189 13 68 3 146 -24 187 -31 47 -85 76
-195 103 -8 2 -35 8 -59 14 -97 24 -106 35 -116 150 -13 152 -27 202 -70 245
-44 43 -78 53 -210 60 -44 2 -80 4 -80 5 0 1 -16 3 -35 5 -47 4 -62 27 -94
141 -49 171 -98 227 -211 236 -14 1 -122 -12 -175 -22 -97 -17 -113 -5 -184
133 -66 130 -121 177 -206 177 -22 0 -86 -15 -142 -34 -157 -52 -153 -52 -191
-14 -18 18 -44 49 -57 68 -13 19 -33 43 -44 53 -10 9 -16 17 -12 17 15 0 -64
61 -98 75 -40 17 -97 20 -124 6 -9 -5 -43 -21 -74 -36 -32 -15 -58 -32 -58
-37 0 -5 -4 -7 -9 -3 -5 3 -15 -1 -23 -8 -12 -12 -41 -27 -63 -32 -5 -2 -14
-4 -20 -6 -18 -6 -68 28 -135 90 -94 88 -153 113 -230 99z m3760 -3133 c0 -18
-7 -54 -15 -81 -8 -27 -15 -50 -15 -51 0 -2 -14 -32 -30 -68 -17 -36 -30 -68
-30 -70 0 -19 -115 -178 -145 -201 l-37 -28 -19 22 c-13 17 -16 29 -9 47 5 12
6 26 3 29 -3 3 0 12 7 21 7 8 10 15 7 15 -18 0 132 299 155 308 4 2 8 10 8 18
0 8 5 14 10 14 6 0 10 5 10 11 0 7 16 28 36 47 35 34 37 35 50 17 8 -10 14
-33 14 -50z m-428 -29 c7 -58 2 -63 -32 -29 -25 24 -26 29 -12 39 18 13 41 8
44 -10z m-6698 -507 c-21 -41 -91 -117 -115 -124 -10 -4 -19 -11 -19 -16 0
-19 62 26 112 81 28 30 45 46 39 35 -24 -45 -51 -110 -51 -122 0 -7 -4 -13 -9
-13 -5 0 -12 -11 -15 -25 -4 -15 -20 -31 -42 -41 -55 -26 -157 -134 -192 -203
-34 -67 -46 -132 -32 -180 8 -28 6 -33 -16 -43 -13 -6 -24 -15 -24 -20 0 -5
13 -2 28 6 26 13 32 13 58 -3 37 -22 72 -32 79 -20 3 4 -7 12 -22 15 -57 14
-82 93 -53 170 24 63 44 104 52 104 4 0 8 7 8 15 0 17 14 36 82 109 45 48 48
50 48 25 0 -14 9 -34 19 -43 23 -21 20 -31 -27 -106 -34 -53 -80 -108 -152
-177 -19 -18 -29 -33 -23 -33 19 0 163 163 196 222 18 32 36 58 41 58 10 0
153 -107 161 -121 15 -24 -141 -164 -222 -200 -18 -8 -33 -17 -33 -21 0 -12 5
-10 58 20 72 40 118 77 180 146 l34 38 16 -24 c16 -21 24 -139 12 -152 -3 -2
-25 -5 -50 -7 -65 -4 -121 -45 -195 -143 -57 -75 -159 -269 -185 -351 -22 -70
-65 -90 -185 -89 -57 0 -125 20 -125 36 0 5 -6 8 -12 8 -19 1 -67 73 -88 131
-12 34 -17 77 -16 131 1 87 -2 83 71 113 22 9 63 28 90 42 28 14 71 36 98 49
26 13 47 28 47 33 0 5 -35 -9 -77 -32 -105 -57 -193 -97 -213 -97 -15 0 12
100 52 190 11 24 24 54 29 65 5 11 15 29 21 40 7 11 31 49 54 85 48 77 96 142
150 200 64 70 183 180 196 180 4 0 13 7 22 15 20 20 124 75 142 75 12 0 12 -5
-2 -31z m160 -679 c-1 -19 -15 -72 -22 -85 -6 -10 -9 -26 -13 -85 -3 -42 -26
-77 -99 -151 -88 -88 -259 -204 -276 -186 -4 3 1 20 10 38 9 18 16 36 16 40 0
14 53 123 63 130 5 3 7 8 6 10 -6 7 63 122 108 181 42 55 103 110 133 120 32
10 75 3 74 -12z"/>
<path d="M2383 4513 c-7 -3 -13 -8 -13 -13 0 -9 38 -1 45 10 5 7 -13 9 -32 3z"/>
<path d="M2110 5594 c-84 -14 -140 -32 -140 -45 0 -6 7 -6 18 0 11 6 30 12 43
15 89 20 130 27 172 28 26 0 47 4 47 8 0 9 -61 7 -140 -6z"/>
<path d="M1916 5543 c-4 -5 -11 -8 -14 -9 -17 -2 -42 -17 -42 -25 0 -5 7 -5
18 0 18 10 53 24 64 25 17 2 19 16 1 16 -11 0 -23 -3 -27 -7z"/>
<path d="M1830 5500 c0 -5 5 -10 10 -10 6 0 10 5 10 10 0 6 -4 10 -10 10 -5 0
-10 -4 -10 -10z"/>
<path d="M1755 5467 c-33 -17 -62 -34 -65 -37 -6 -7 -37 -25 -75 -46 -102 -56
-271 -218 -342 -329 -18 -27 -37 -56 -43 -62 -6 -7 -8 -13 -4 -13 3 0 2 -6 -3
-12 -12 -16 -38 -88 -54 -148 -12 -46 -15 -175 -5 -220 12 -51 67 -147 105
-183 41 -38 147 -97 174 -97 9 0 18 -4 21 -8 4 -7 26 -10 129 -17 21 -1 40 2
43 6 3 5 -12 9 -33 8 -241 -5 -419 145 -431 364 -16 286 211 585 596 784 28
15 52 31 52 35 0 11 3 12 -65 -25z"/>
<path d="M2156 3653 c-4 -16 -9 -37 -13 -48 -4 -14 -2 -17 6 -10 6 6 12 20 14
32 2 13 6 26 10 29 10 10 9 24 -2 24 -5 0 -12 -12 -15 -27z"/>
</g>
</svg>
